<svg xmlns="http://www.w3.org/2000/svg" xmlns:xlink="http://www.w3.org/1999/xlink" width="500" zoomAndPan="magnify" viewBox="0 0 375 374.999991" height="500" preserveAspectRatio="xMidYMid meet" version="1.2"><defs><clipPath id="0549c70922"><path d="M 27.535156 27.535156 L 347.464844 27.535156 L 347.464844 347.464844 L 27.535156 347.464844 Z M 27.535156 27.535156 "/></clipPath><clipPath id="bdc9938b0a"><path d="M 187.5 27.535156 C 99.15625 27.535156 27.535156 99.15625 27.535156 187.5 C 27.535156 275.84375 99.15625 347.464844 187.5 347.464844 C 275.84375 347.464844 347.464844 275.84375 347.464844 187.5 C 347.464844 99.15625 275.84375 27.535156 187.5 27.535156 Z M 187.5 27.535156 "/></clipPath><clipPath id="11dfc46a05"><path d="M 150.433594 234.539062 L 225.363281 234.539062 L 225.363281 306.289062 L 150.433594 306.289062 Z M 150.433594 234.539062 "/></clipPath><clipPath id="fac89ebd03"><path d="M 153 271.738281 L 222.617188 271.738281 L 222.617188 306.289062 L 153 306.289062 Z M 153 271.738281 "/></clipPath><clipPath id="5288879f63"><path d="M 229.609375 245.023438 L 265.945312 245.023438 L 265.945312 287.71875 L 229.609375 287.71875 Z M 229.609375 245.023438 "/></clipPath><clipPath id="818c0b0f51"><path d="M 229.609375 246 L 265.945312 246 L 265.945312 287.71875 L 229.609375 287.71875 Z M 229.609375 246 "/></clipPath><clipPath id="eedd9a6706"><path d="M 109.210938 245 L 147 245 L 147 288 L 109.210938 288 Z M 109.210938 245 "/></clipPath><clipPath id="dbc34048c4"><path d="M 109.210938 246 L 147 246 L 147 288 L 109.210938 288 Z M 109.210938 246 "/></clipPath><clipPath id="4ddfd419fd"><path d="M 141 152.542969 L 146 152.542969 L 146 158 L 141 158 Z M 141 152.542969 "/></clipPath><clipPath id="1429f6aa2b"><path d="M 212.164062 63.921875 L 276.367188 63.921875 L 276.367188 139.421875 L 212.164062 139.421875 Z M 212.164062 63.921875 "/></clipPath></defs><g id="48ee9e1ee1"><g clip-rule="nonzero" clip-path="url(#0549c70922)"><g clip-rule="nonzero" clip-path="url(#bdc9938b0a)"><path style=" stroke:none;fill-rule:nonzero;fill:#ffffff;fill-opacity:1;" d="M 27.535156 27.535156 L 347.464844 27.535156 L 347.464844 347.464844 L 27.535156 347.464844 Z M 27.535156 27.535156 "/></g></g><path style=" stroke:none;fill-rule:nonzero;fill:#094f94;fill-opacity:1;" d="M 199.484375 265.195312 L 207.515625 169.742188 C 208.042969 163.46875 203.386719 157.957031 197.109375 157.429688 L 188.820312 156.730469 C 182.542969 156.203125 177.027344 160.859375 176.5 167.136719 L 168.46875 262.585938 C 167.941406 268.859375 172.597656 274.375 178.875 274.902344 L 187.164062 275.597656 C 193.441406 276.128906 198.957031 271.46875 199.484375 265.195312 "/><path style=" stroke:none;fill-rule:nonzero;fill:#094f94;fill-opacity:1;" d="M 232.679688 264.738281 L 141.484375 264.738281 L 141.484375 250.496094 L 232.679688 250.496094 L 232.679688 264.738281 "/><g clip-rule="nonzero" clip-path="url(#11dfc46a05)"><path style=" stroke:none;fill-rule:nonzero;fill:#e0ecf8;fill-opacity:1;" d="M 224.914062 234.609375 L 150.753906 234.609375 C 150.753906 234.609375 147.816406 275.121094 161.617188 291.558594 C 174.394531 306.773438 186.15625 306.394531 187.832031 306.253906 C 189.511719 306.394531 201.273438 306.773438 214.050781 291.558594 C 227.851562 275.121094 224.914062 234.609375 224.914062 234.609375 "/></g><g clip-rule="nonzero" clip-path="url(#fac89ebd03)"><path style=" stroke:none;fill-rule:nonzero;fill:#c7dae9;fill-opacity:1;" d="M 214.835938 287.445312 C 201.675781 302.660156 189.5625 302.28125 187.832031 302.144531 C 186.105469 302.28125 173.988281 302.660156 160.828125 287.445312 C 157.320312 283.390625 154.867188 277.867188 153.152344 271.851562 C 154.808594 279.429688 157.449219 286.59375 161.617188 291.558594 C 174.394531 306.773438 186.15625 306.394531 187.832031 306.253906 C 189.511719 306.394531 201.273438 306.773438 214.050781 291.558594 C 218.21875 286.59375 220.855469 279.429688 222.515625 271.851562 C 220.800781 277.867188 218.34375 283.390625 214.835938 287.445312 "/></g><path style=" stroke:none;fill-rule:nonzero;fill:#c7dae9;fill-opacity:1;" d="M 225.042969 237.105469 L 195.378906 234.609375 L 150.753906 234.609375 C 150.753906 234.609375 150.683594 235.585938 150.613281 237.285156 C 155.515625 242.757812 162.199219 246.394531 169.796875 247.03125 L 201.902344 249.730469 C 210.746094 250.476562 219.050781 247.027344 225.152344 240.929688 C 225.128906 239.410156 225.085938 238.117188 225.042969 237.105469 "/><path style=" stroke:none;fill-rule:nonzero;fill:#c7dae9;fill-opacity:1;" d="M 159.882812 289.234375 C 162.886719 284.882812 164.84375 278.492188 164.992188 271.332031 L 210.785156 271.332031 C 210.933594 278.449219 212.863281 284.804688 215.839844 289.15625 C 216.179688 288.644531 216.507812 288.113281 216.824219 287.570312 C 214.195312 283.367188 212.535156 277.25 212.535156 270.445312 C 212.535156 257.902344 218.171875 247.683594 225.132812 247.535156 C 225.144531 246.929688 225.15625 246.34375 225.164062 245.769531 C 217.386719 245.882812 211.054688 256.433594 210.785156 269.570312 L 164.992188 269.570312 C 164.71875 256.371094 158.328125 245.777344 150.503906 245.765625 C 150.511719 246.339844 150.519531 246.925781 150.535156 247.527344 C 157.546875 247.570312 163.242188 257.832031 163.242188 270.445312 C 163.242188 277.300781 161.558594 283.457031 158.898438 287.660156 C 159.214844 288.199219 159.542969 288.726562 159.882812 289.234375 "/><path style=" stroke:none;fill-rule:nonzero;fill:#c7dae9;fill-opacity:1;" d="M 180.910156 270.449219 C 180.910156 266.511719 184.105469 263.316406 188.046875 263.316406 C 191.984375 263.316406 195.179688 266.511719 195.179688 270.449219 C 195.179688 274.390625 191.984375 277.582031 188.046875 277.582031 C 184.105469 277.582031 180.910156 274.390625 180.910156 270.449219 "/><path style=" stroke:none;fill-rule:nonzero;fill:#094f94;fill-opacity:1;" d="M 183.105469 270.449219 C 183.105469 267.722656 185.316406 265.515625 188.046875 265.515625 C 190.773438 265.515625 192.984375 267.722656 192.984375 270.449219 C 192.984375 273.175781 190.773438 275.386719 188.046875 275.386719 C 185.316406 275.386719 183.105469 273.175781 183.105469 270.449219 "/><g clip-rule="nonzero" clip-path="url(#5288879f63)"><path style=" stroke:none;fill-rule:nonzero;fill:#e0ecf8;fill-opacity:1;" d="M 229.644531 250.105469 L 229.871094 262.566406 C 229.933594 266.019531 231.722656 269.210938 234.632812 271.066406 L 259.378906 286.851562 C 262.464844 288.816406 266.453125 286.242188 265.890625 282.628906 C 264.390625 272.992188 258.472656 257.203125 236.855469 245.730469 C 233.550781 243.976562 229.578125 246.367188 229.644531 250.105469 "/></g><g clip-rule="nonzero" clip-path="url(#818c0b0f51)"><path style=" stroke:none;fill-rule:nonzero;fill:#c7dae9;fill-opacity:1;" d="M 261.492188 282.632812 L 236.742188 266.847656 C 233.832031 264.992188 232.042969 261.800781 231.980469 258.347656 L 231.753906 246.019531 C 230.484375 246.890625 229.613281 248.34375 229.644531 250.105469 L 229.871094 262.566406 C 229.933594 266.019531 231.722656 269.210938 234.632812 271.066406 L 259.378906 286.851562 C 262.433594 288.796875 266.367188 286.292969 265.898438 282.734375 C 264.613281 283.46875 262.953125 283.566406 261.492188 282.632812 "/></g><g clip-rule="nonzero" clip-path="url(#eedd9a6706)"><path style=" stroke:none;fill-rule:nonzero;fill:#e0ecf8;fill-opacity:1;" d="M 146.023438 250.105469 L 145.796875 262.566406 C 145.734375 266.019531 143.945312 269.210938 141.03125 271.066406 L 116.285156 286.851562 C 113.203125 288.816406 109.214844 286.242188 109.777344 282.628906 C 111.273438 272.992188 117.195312 257.203125 138.8125 245.730469 C 142.113281 243.976562 146.089844 246.367188 146.023438 250.105469 "/></g><g clip-rule="nonzero" clip-path="url(#dbc34048c4)"><path style=" stroke:none;fill-rule:nonzero;fill:#c7dae9;fill-opacity:1;" d="M 114.175781 282.632812 L 138.921875 266.847656 C 141.835938 264.992188 143.621094 261.800781 143.6875 258.347656 L 143.910156 246.019531 C 145.183594 246.890625 146.054688 248.34375 146.023438 250.105469 L 145.796875 262.566406 C 145.734375 266.019531 143.945312 269.210938 141.03125 271.066406 L 116.285156 286.851562 C 113.230469 288.796875 109.300781 286.292969 109.769531 282.734375 C 111.054688 283.46875 112.714844 283.566406 114.175781 282.632812 "/></g><path style=" stroke:none;fill-rule:nonzero;fill:#c7dae9;fill-opacity:1;" d="M 143.085938 188.3125 L 143.167969 154.726562 L 144.085938 154.660156 L 148.539062 188.769531 L 143.085938 188.3125 "/><g clip-rule="nonzero" clip-path="url(#4ddfd419fd)"><path style=" stroke:none;fill-rule:nonzero;fill:#c7dae9;fill-opacity:1;" d="M 141.492188 154.664062 C 141.597656 153.449219 142.664062 152.546875 143.875 152.652344 C 145.089844 152.753906 145.988281 153.820312 145.886719 155.03125 C 145.785156 156.242188 144.71875 157.144531 143.507812 157.042969 C 142.292969 156.941406 141.394531 155.875 141.492188 154.664062 "/></g><path style=" stroke:none;fill-rule:nonzero;fill:#c7dae9;fill-opacity:1;" d="M 236.921875 196.203125 L 242.457031 163.078125 L 241.5625 162.855469 L 231.46875 195.742188 L 236.921875 196.203125 "/><path style=" stroke:none;fill-rule:nonzero;fill:#c7dae9;fill-opacity:1;" d="M 244.117188 163.292969 C 244.21875 162.078125 243.316406 161.011719 242.105469 160.910156 C 240.890625 160.808594 239.824219 161.710938 239.722656 162.921875 C 239.621094 164.136719 240.523438 165.199219 241.734375 165.300781 C 242.949219 165.402344 244.015625 164.503906 244.117188 163.292969 "/><path style=" stroke:none;fill-rule:nonzero;fill:#094f94;fill-opacity:1;" d="M 237.90625 194.371094 L 142.421875 186.339844 C 136.144531 185.8125 130.628906 190.472656 130.101562 196.746094 L 129.402344 205.03125 C 128.875 211.304688 133.535156 216.820312 139.8125 217.347656 L 235.296875 225.375 C 241.574219 225.902344 247.089844 221.246094 247.617188 214.972656 L 248.316406 206.6875 C 248.84375 200.414062 244.183594 194.898438 237.90625 194.371094 "/><path style=" stroke:none;fill-rule:nonzero;fill:#e0ecf8;fill-opacity:1;" d="M 208.796875 169.386719 L 175.300781 166.570312 C 157.804688 165.101562 142.429688 178.085938 140.957031 195.574219 L 139.910156 207.996094 C 138.4375 225.488281 151.429688 240.859375 168.925781 242.328125 L 202.421875 245.144531 C 219.914062 246.617188 235.292969 233.632812 236.765625 216.140625 L 237.808594 203.71875 C 239.28125 186.230469 226.292969 170.859375 208.796875 169.386719 "/><path style=" stroke:none;fill-rule:nonzero;fill:#c7dae9;fill-opacity:1;" d="M 226.234375 199.433594 L 226.070312 198.054688 C 225.546875 193.613281 223.152344 189.582031 219.503906 186.996094 C 215.859375 184.410156 211.261719 183.480469 206.894531 184.453125 L 206.402344 184.5625 C 195.75 186.929688 184.789062 185.984375 174.699219 181.828125 C 170.554688 180.117188 165.855469 180.25 161.808594 182.1875 C 157.765625 184.128906 154.722656 187.707031 153.457031 192.011719 L 153.085938 193.28125 C 150.574219 201.847656 152.027344 210.984375 157.078125 218.347656 C 162.125 225.710938 170.125 230.363281 179.023438 231.113281 L 194.335938 232.398438 C 203.234375 233.148438 211.902344 229.898438 218.109375 223.480469 C 224.316406 217.0625 227.277344 208.296875 226.234375 199.433594 "/><path style=" stroke:none;fill-rule:nonzero;fill:#2e3033;fill-opacity:1;" d="M 223.300781 199.777344 L 223.136719 198.402344 C 222.242188 190.820312 214.992188 185.675781 207.539062 187.335938 L 207.042969 187.445312 C 195.855469 189.933594 184.171875 188.925781 173.574219 184.558594 C 166.496094 181.636719 158.449219 185.496094 156.292969 192.84375 L 155.921875 194.109375 C 151.175781 210.289062 162.460938 226.757812 179.269531 228.171875 L 194.585938 229.457031 C 211.394531 230.871094 225.273438 216.523438 223.300781 199.777344 "/><path style=" stroke:none;fill-rule:nonzero;fill:#ffffff;fill-opacity:1;" d="M 150.578125 182.6875 C 150.578125 182.6875 161.363281 168.566406 167.902344 171.371094 C 174.4375 174.179688 158.730469 178.296875 150.578125 182.6875 "/><path style=" stroke:none;fill-rule:nonzero;fill:#ffffff;fill-opacity:1;" d="M 176.722656 171.882812 C 176.632812 172.949219 175.695312 173.742188 174.625 173.652344 C 173.558594 173.5625 172.761719 172.625 172.851562 171.558594 C 172.941406 170.488281 173.882812 169.695312 174.949219 169.785156 C 176.019531 169.875 176.8125 170.816406 176.722656 171.882812 "/><path style=" stroke:none;fill-rule:nonzero;fill:#ffffff;fill-opacity:1;" d="M 138.757812 248.667969 C 138.757812 248.667969 121.304688 259.230469 124.46875 261.679688 C 127.628906 264.128906 138.757812 248.667969 138.757812 248.667969 "/><path style=" stroke:none;fill-rule:nonzero;fill:#ffffff;fill-opacity:1;" d="M 261.136719 275.570312 C 261.136719 275.570312 252.914062 256.90625 250.074219 259.722656 C 247.234375 262.539062 261.136719 275.570312 261.136719 275.570312 "/><path style=" stroke:none;fill-rule:nonzero;fill:#ffde1a;fill-opacity:1;" d="M 178.742188 204.734375 C 178.679688 204.734375 178.617188 204.734375 178.554688 204.726562 L 169.816406 203.992188 C 168.597656 203.890625 167.695312 202.820312 167.796875 201.601562 C 167.898438 200.386719 168.96875 199.480469 170.1875 199.585938 L 178.925781 200.320312 C 180.140625 200.421875 181.046875 201.492188 180.945312 202.710938 C 180.847656 203.863281 179.878906 204.734375 178.742188 204.734375 "/><path style=" stroke:none;fill-rule:nonzero;fill:#ffde1a;fill-opacity:1;" d="M 208.136719 207.207031 C 208.074219 207.207031 208.011719 207.207031 207.945312 207.199219 L 199.210938 206.464844 C 197.992188 206.363281 197.089844 205.292969 197.191406 204.074219 C 197.292969 202.859375 198.363281 201.949219 199.582031 202.054688 L 208.320312 202.792969 C 209.535156 202.894531 210.441406 203.964844 210.335938 205.179688 C 210.242188 206.335938 209.273438 207.207031 208.136719 207.207031 "/><path style=" stroke:none;fill-rule:nonzero;fill:#ffde1a;fill-opacity:1;" d="M 195.234375 219.394531 C 195.171875 219.394531 195.109375 219.394531 195.046875 219.386719 L 179.535156 218.082031 C 178.316406 217.980469 177.414062 216.914062 177.515625 215.695312 C 177.617188 214.476562 178.691406 213.570312 179.902344 213.675781 L 195.417969 214.980469 C 196.636719 215.082031 197.539062 216.152344 197.4375 217.371094 C 197.339844 218.523438 196.375 219.394531 195.234375 219.394531 "/><path style=" stroke:none;fill-rule:nonzero;fill:#0083db;fill-opacity:1;" d="M 119.054688 190.035156 C 118.84375 189.636719 118.800781 189.246094 118.925781 188.867188 C 119.046875 188.488281 119.324219 188.1875 119.75 187.960938 C 120.1875 187.730469 120.597656 187.679688 120.984375 187.800781 C 121.367188 187.925781 121.664062 188.179688 121.863281 188.566406 C 122.058594 188.9375 122.101562 189.3125 121.988281 189.695312 C 121.875 190.074219 121.59375 190.378906 121.144531 190.617188 C 120.695312 190.851562 120.28125 190.90625 119.910156 190.78125 C 119.535156 190.660156 119.25 190.410156 119.054688 190.035156 Z M 117.566406 186.773438 C 117.09375 185.867188 116.824219 185.085938 116.769531 184.429688 C 116.710938 183.777344 116.84375 182.953125 117.171875 181.960938 C 117.5 180.96875 117.679688 180.289062 117.710938 179.925781 C 117.769531 179.367188 117.667969 178.847656 117.414062 178.363281 C 117.082031 177.726562 116.667969 177.320312 116.175781 177.148438 C 115.679688 176.980469 115.128906 177.054688 114.515625 177.375 C 113.929688 177.683594 113.542969 178.09375 113.359375 178.609375 C 113.171875 179.125 113.230469 179.664062 113.523438 180.226562 L 111.042969 181.53125 C 110.421875 180.316406 110.332031 179.148438 110.773438 178.023438 C 111.210938 176.898438 112.09375 175.988281 113.421875 175.292969 C 114.792969 174.574219 116.039062 174.363281 117.171875 174.65625 C 118.300781 174.953125 119.195312 175.722656 119.847656 176.96875 C 120.429688 178.078125 120.488281 179.445312 120.015625 181.0625 L 119.40625 182.957031 C 119.226562 183.703125 119.386719 184.570312 119.886719 185.558594 L 117.566406 186.773438 "/><path style=" stroke:none;fill-rule:nonzero;fill:#0083db;fill-opacity:1;" d="M 250.171875 190.96875 C 250.375 190.566406 250.667969 190.304688 251.046875 190.179688 C 251.425781 190.058594 251.832031 190.105469 252.265625 190.320312 C 252.703125 190.542969 252.988281 190.84375 253.113281 191.230469 C 253.238281 191.613281 253.203125 192 253.007812 192.390625 C 252.820312 192.765625 252.539062 193.019531 252.164062 193.148438 C 251.789062 193.277344 251.375 193.230469 250.921875 193 C 250.46875 192.773438 250.183594 192.472656 250.066406 192.097656 C 249.949219 191.722656 249.984375 191.347656 250.171875 190.96875 Z M 251.953125 187.855469 C 252.414062 186.941406 252.890625 186.269531 253.390625 185.839844 C 253.890625 185.410156 254.636719 185.039062 255.632812 184.722656 C 256.628906 184.410156 257.285156 184.160156 257.601562 183.976562 C 258.085938 183.695312 258.453125 183.3125 258.695312 182.824219 C 259.019531 182.179688 259.105469 181.609375 258.957031 181.105469 C 258.808594 180.605469 258.425781 180.203125 257.804688 179.890625 C 257.214844 179.59375 256.65625 179.523438 256.128906 179.675781 C 255.601562 179.824219 255.195312 180.1875 254.910156 180.753906 L 252.40625 179.496094 C 253.027344 178.289062 253.925781 177.53125 255.09375 177.230469 C 256.265625 176.933594 257.519531 177.117188 258.859375 177.789062 C 260.242188 178.480469 261.144531 179.371094 261.566406 180.460938 C 261.984375 181.550781 261.878906 182.726562 261.25 183.984375 C 260.6875 185.105469 259.613281 185.945312 258.023438 186.507812 L 256.128906 187.121094 C 255.414062 187.410156 254.804688 188.046875 254.292969 189.03125 L 251.953125 187.855469 "/><path style=" stroke:none;fill-rule:nonzero;fill:#0083db;fill-opacity:1;" d="M 127.398438 171.332031 C 127.234375 170.839844 127.257812 170.394531 127.464844 169.988281 C 127.671875 169.585938 128.039062 169.292969 128.5625 169.121094 C 129.097656 168.945312 129.570312 168.960938 129.980469 169.167969 C 130.390625 169.378906 130.675781 169.71875 130.832031 170.191406 C 130.984375 170.648438 130.960938 171.078125 130.761719 171.484375 C 130.566406 171.890625 130.191406 172.183594 129.640625 172.367188 C 129.089844 172.550781 128.617188 172.535156 128.21875 172.328125 C 127.824219 172.117188 127.546875 171.785156 127.398438 171.332031 Z M 126.324219 167.382812 C 125.953125 166.273438 125.800781 165.34375 125.855469 164.59375 C 125.910156 163.84375 126.214844 162.941406 126.769531 161.882812 C 127.316406 160.828125 127.648438 160.097656 127.753906 159.691406 C 127.917969 159.074219 127.902344 158.46875 127.707031 157.878906 C 127.445312 157.097656 127.054688 156.566406 126.53125 156.28125 C 126.007812 156 125.371094 155.980469 124.621094 156.230469 C 123.902344 156.46875 123.394531 156.859375 123.089844 157.40625 C 122.785156 157.957031 122.75 158.574219 122.976562 159.261719 L 119.941406 160.269531 C 119.46875 158.789062 119.582031 157.453125 120.285156 156.269531 C 120.988281 155.082031 122.152344 154.222656 123.777344 153.683594 C 125.449219 153.128906 126.898438 153.121094 128.117188 153.660156 C 129.335938 154.199219 130.195312 155.230469 130.703125 156.757812 C 131.152344 158.113281 130.964844 159.660156 130.136719 161.398438 L 129.101562 163.421875 C 128.757812 164.230469 128.777344 165.234375 129.160156 166.441406 L 126.324219 167.382812 "/><g clip-rule="nonzero" clip-path="url(#1429f6aa2b)"><path style=" stroke:none;fill-rule:nonzero;fill:#094f94;fill-opacity:1;" d="M 276.144531 77.289062 C 275.691406 73.707031 274.671875 69.570312 271.707031 67.214844 C 269.023438 65.085938 265.511719 64.632812 262.203125 64.367188 C 253.734375 63.6875 245.0625 63.722656 236.636719 64.894531 C 229.542969 65.878906 222.027344 68.632812 218.21875 75.136719 C 216.191406 78.597656 215.632812 82.84375 214.890625 86.726562 C 214.089844 90.925781 213.433594 95.152344 212.914062 99.394531 C 212.457031 103.121094 211.792969 107.035156 212.417969 110.777344 C 212.792969 113.019531 213.898438 114.902344 215.503906 116.308594 C 216.457031 117.589844 217.652344 118.71875 219.085938 119.613281 C 219.734375 120.015625 220.40625 120.378906 221.097656 120.707031 C 219.75 123.195312 219.578125 126.433594 220 129.097656 C 220.582031 132.820312 222.507812 136.175781 224.929688 139.007812 C 225.738281 139.949219 227.164062 139.128906 227.222656 138.058594 C 227.511719 132.695312 229.746094 127.632812 233.359375 123.738281 C 236.082031 124.050781 238.828125 124.214844 241.5625 124.226562 C 248.21875 124.261719 255.390625 123.257812 260.894531 119.222656 C 266.855469 114.847656 269.445312 107.894531 271.816406 101.171875 C 274.496094 93.570312 277.171875 85.457031 276.144531 77.289062 "/></g><path style=" stroke:none;fill-rule:nonzero;fill:#ffffff;fill-opacity:1;" d="M 246.621094 78.488281 C 246.730469 78.324219 246.839844 78.160156 247.109375 78.214844 C 247.054688 78.378906 246.890625 78.488281 246.621094 78.488281 Z M 244.78125 77.890625 C 244.726562 78.109375 244.511719 77.890625 244.5625 77.621094 C 244.511719 77.835938 244.347656 77.945312 244.238281 78.054688 C 244.183594 78.109375 244.023438 78.160156 244.078125 78.378906 C 243.265625 78.324219 243.265625 78.917969 242.613281 78.972656 C 242.613281 79.191406 242.613281 79.296875 242.613281 79.460938 C 241.855469 79.460938 241.53125 79.894531 241.316406 80.433594 C 240.992188 80.273438 240.773438 80.542969 240.558594 80.761719 C 240.339844 81.03125 240.070312 81.300781 239.90625 81.625 C 239.527344 81.789062 239.421875 81.898438 239.148438 82.167969 C 239.042969 82.277344 239.148438 82.332031 238.933594 82.332031 C 238.769531 82.332031 238.824219 82.601562 238.824219 82.765625 C 238.609375 82.765625 238.445312 82.765625 238.230469 82.765625 C 238.121094 82.925781 238.285156 83.140625 238.230469 83.304688 C 238.175781 83.304688 237.90625 83.25 237.90625 83.304688 C 237.742188 83.46875 237.851562 83.738281 237.6875 83.902344 C 237.578125 84.0625 237.253906 84.171875 236.929688 84.441406 C 236.875 84.765625 236.769531 85.089844 236.441406 85.199219 C 236.390625 85.308594 236.496094 85.363281 236.605469 85.363281 C 236.496094 85.523438 236.226562 85.6875 235.902344 85.6875 C 235.957031 85.796875 236.117188 85.957031 236.0625 86.175781 C 236.0625 86.28125 235.46875 86.390625 235.902344 86.445312 C 235.902344 86.660156 235.359375 86.660156 235.304688 86.769531 C 235.253906 86.988281 235.683594 87.203125 235.144531 87.09375 C 234.871094 87.203125 235.253906 87.3125 235.144531 87.582031 C 235.089844 87.746094 234.65625 87.796875 234.820312 88.015625 C 234.765625 88.015625 234.710938 88.015625 234.65625 88.015625 C 234.386719 87.636719 234.386719 88.339844 234.820312 88.285156 C 234.765625 88.558594 234.167969 88.339844 234.0625 88.609375 C 234.007812 88.828125 234.007812 89.261719 233.519531 89.207031 C 233.519531 89.421875 233.519531 89.640625 233.519531 89.855469 C 232.761719 89.964844 233.410156 90.453125 232.761719 90.453125 C 233.085938 90.832031 232.597656 91.265625 232.273438 91.425781 C 232.058594 91.640625 232.21875 91.914062 232.273438 91.859375 C 232.113281 92.183594 231.734375 92.128906 231.515625 92.402344 C 231.414062 92.550781 231.828125 92.609375 231.886719 92.574219 C 231.675781 92.882812 231.460938 92.621094 231.355469 93.160156 C 231.246094 93.429688 231.027344 93.429688 231.027344 93.699219 C 230.976562 93.972656 231.191406 94.023438 231.136719 94.296875 C 230.8125 94.023438 230.976562 94.351562 230.8125 94.457031 C 230.8125 94.457031 230.648438 94.402344 230.648438 94.457031 C 230.597656 94.511719 230.703125 94.78125 230.648438 94.835938 C 230.269531 95 229.945312 96.136719 229.675781 96.570312 C 229.566406 96.839844 229.460938 96.40625 229.675781 96.40625 C 229.730469 96.082031 229.675781 95.648438 229.675781 95.433594 C 229.675781 95.433594 230 95.324219 229.890625 95.269531 C 229.566406 95.054688 230 95.105469 230.054688 95 C 230.164062 94.78125 230 94.457031 230.054688 94.296875 C 230.109375 94.1875 230.269531 94.296875 230.269531 94.1875 C 230.269531 93.808594 230.8125 93.917969 230.378906 93.160156 C 231.082031 92.996094 230.8125 91.96875 231.515625 91.859375 C 231.570312 91.75 231.40625 91.480469 231.515625 91.265625 C 231.570312 91.210938 231.785156 91.15625 231.894531 91.101562 C 232.113281 90.722656 232.113281 90.398438 232.4375 90.019531 C 232.597656 89.800781 232.597656 89.695312 232.761719 89.53125 C 232.925781 89.367188 232.925781 88.882812 233.195312 88.609375 C 233.25 88.449219 233.519531 88.339844 233.683594 88.015625 C 233.789062 87.90625 234.0625 87.796875 234.0625 87.582031 C 234.0625 87.582031 234.0625 87.472656 234.0625 87.417969 C 234.167969 87.257812 234.492188 87.09375 234.65625 86.988281 C 234.65625 86.933594 234.546875 86.660156 234.65625 86.609375 C 234.65625 86.609375 235.089844 86.390625 234.980469 86.28125 L 234.820312 86.28125 C 235.035156 85.902344 235.46875 85.851562 235.304688 85.363281 C 235.957031 85.472656 235.578125 84.710938 236.28125 84.875 C 236.171875 84.550781 236.550781 84.550781 236.441406 84.0625 C 236.875 84.171875 236.769531 83.792969 237.199219 83.792969 C 237.148438 83.195312 237.6875 83.195312 237.6875 82.601562 C 237.851562 82.546875 238.011719 82.4375 238.230469 82.4375 C 238.390625 81.953125 239.097656 81.519531 239.527344 81.03125 C 239.582031 80.921875 239.746094 81.085938 239.746094 80.867188 C 239.746094 80.707031 239.960938 80.816406 240.070312 80.761719 C 240.125 80.707031 240.015625 80.488281 240.070312 80.433594 C 240.234375 80.273438 240.503906 80.382812 240.558594 80.21875 C 240.664062 80.164062 240.664062 79.949219 240.773438 79.949219 C 241.152344 79.730469 241.640625 79.839844 241.53125 79.191406 C 241.695312 78.972656 242.074219 79.136719 242.074219 79.191406 C 242.289062 79.082031 242.34375 78.648438 242.613281 78.488281 C 242.722656 78.378906 243.699219 78.378906 243.15625 78.214844 C 243.265625 77.890625 243.480469 78.160156 243.699219 78.214844 C 244.023438 78.214844 243.75 77.78125 243.699219 77.890625 C 243.96875 77.457031 244.617188 77.78125 244.78125 77.1875 C 245.375 77.402344 245.214844 77.242188 245.863281 77.1875 C 246.296875 77.511719 244.78125 77.566406 244.78125 77.890625 Z M 244.457031 79.785156 C 244.292969 79.191406 245.269531 79.570312 245.214844 78.972656 C 245.972656 79.191406 244.890625 79.679688 244.457031 79.785156 Z M 241.855469 80.761719 C 241.910156 80.597656 242.074219 80.652344 242.074219 80.761719 C 242.074219 81.464844 241.152344 81.355469 240.992188 82.003906 C 240.394531 81.410156 242.019531 81.464844 241.855469 80.761719 Z M 240.234375 82.765625 C 239.800781 83.089844 239.257812 83.195312 238.933594 83.628906 C 238.824219 83.792969 239.097656 84.171875 238.609375 84.0625 C 238.71875 83.953125 238.554688 83.683594 238.609375 83.628906 C 238.71875 83.574219 238.933594 83.683594 238.933594 83.628906 C 239.042969 83.519531 239.042969 83.25 239.148438 83.140625 C 239.203125 83.140625 239.476562 83.195312 239.527344 83.140625 C 239.691406 83.035156 239.527344 82.710938 239.746094 82.601562 C 239.855469 82.710938 240.015625 82.816406 240.070312 82.601562 C 240.179688 82.386719 240.289062 82.601562 240.234375 82.765625 Z M 240.449219 81.84375 C 240.828125 81.898438 240.558594 82.546875 240.070312 82.332031 C 240.179688 82.167969 240.503906 82.167969 240.449219 81.84375 Z M 244.457031 80.21875 C 244.132812 80.273438 244.132812 80.054688 243.859375 80.054688 C 243.589844 80.109375 244.023438 80.273438 243.859375 80.597656 C 243.859375 80.597656 242.832031 80.761719 243.15625 81.355469 C 243.046875 81.410156 242.886719 81.140625 242.832031 81.195312 C 242.722656 81.246094 242.507812 81.464844 242.453125 81.519531 C 242.398438 81.519531 242.34375 81.953125 242.183594 82.003906 C 242.128906 82.058594 241.910156 81.953125 241.855469 82.003906 C 241.804688 82.113281 241.964844 82.277344 241.855469 82.332031 C 241.695312 82.492188 241.53125 82.601562 241.316406 82.765625 C 241.316406 82.816406 241.046875 82.925781 240.992188 82.925781 C 240.992188 83.089844 241.046875 83.25 240.992188 83.304688 C 240.882812 83.359375 240.613281 83.25 240.558594 83.304688 C 240.503906 83.304688 240.664062 83.574219 240.558594 83.628906 C 240.503906 83.628906 240.289062 83.574219 240.234375 83.628906 C 240.179688 83.683594 240.179688 83.792969 240.070312 83.902344 C 239.960938 84.007812 239.960938 83.953125 239.90625 84.0625 C 239.800781 84.117188 239.582031 84.332031 239.527344 84.441406 C 239.367188 84.605469 239.476562 84.820312 239.3125 85.039062 C 239.148438 85.253906 238.769531 85.472656 238.445312 85.851562 C 238.445312 86.066406 238.445312 86.28125 238.445312 86.445312 C 238.066406 86.445312 237.90625 86.824219 237.6875 87.09375 C 237.527344 87.367188 237.417969 87.472656 237.199219 87.746094 C 237.09375 87.851562 236.824219 87.960938 236.769531 88.015625 C 236.714844 88.230469 236.875 88.503906 236.769531 88.609375 C 236.714844 88.664062 236.496094 88.558594 236.441406 88.609375 C 236.171875 88.71875 236.441406 89.421875 235.683594 89.367188 C 235.683594 89.53125 235.902344 89.421875 236.0625 89.53125 C 235.847656 89.746094 235.902344 90.234375 235.304688 90.179688 C 235.523438 90.558594 234.820312 90.9375 235.304688 91.101562 C 235.253906 91.316406 234.980469 91.101562 234.980469 90.992188 C 234.710938 91.046875 235.089844 91.210938 234.820312 91.265625 C 234.710938 91.914062 234.167969 92.292969 233.898438 92.671875 C 234.332031 92.832031 233.519531 93.105469 233.355469 93.160156 C 233.410156 93.320312 233.574219 93.320312 233.683594 93.320312 C 233.683594 93.699219 233.25 93.539062 233.355469 94.023438 C 233.195312 94.023438 233.25 93.808594 233.195312 93.699219 C 232.871094 93.699219 233.085938 94.1875 232.761719 94.1875 C 232.761719 94.351562 232.761719 94.566406 232.976562 94.621094 C 232.976562 94.835938 232.597656 94.890625 232.597656 95 C 232.492188 95.214844 232.707031 95.488281 232.273438 95.433594 C 232.164062 95.757812 232.273438 96.40625 231.679688 96.40625 C 231.460938 96.136719 231.785156 95.757812 231.894531 95.433594 C 231.949219 95.214844 232.164062 94.945312 232.273438 94.621094 C 232.273438 94.511719 232.21875 94.351562 232.273438 94.296875 C 232.273438 94.1875 232.597656 94.078125 232.597656 94.023438 C 232.707031 93.699219 232.707031 93.320312 232.761719 92.996094 C 233.410156 93.210938 232.925781 92.5625 233.519531 92.671875 C 233.195312 92.507812 233.519531 92.402344 233.519531 92.023438 C 233.519531 91.804688 233.84375 91.804688 233.898438 91.75 C 234.113281 91.371094 234.113281 91.046875 234.386719 90.613281 C 234.546875 90.503906 234.765625 90.34375 234.820312 90.289062 C 234.925781 90.179688 234.871094 89.800781 234.980469 89.53125 C 234.980469 89.421875 235.144531 89.53125 235.144531 89.367188 C 235.144531 89.097656 235.414062 89.316406 235.523438 89.207031 C 235.683594 88.882812 235.523438 88.664062 235.683594 88.449219 C 235.792969 88.394531 236.011719 88.449219 236.0625 88.449219 C 236.117188 88.394531 236.011719 88.070312 236.0625 88.015625 C 236.117188 88.015625 236.441406 87.90625 236.441406 87.851562 C 236.550781 87.746094 236.335938 87.417969 236.605469 87.417969 C 236.875 87.417969 236.769531 86.445312 237.527344 86.609375 C 237.527344 86.445312 237.363281 86.5 237.199219 86.445312 C 237.253906 86.28125 237.363281 86.175781 237.6875 86.175781 C 237.6875 85.6875 238.121094 85.523438 238.445312 85.363281 C 238.5 85.199219 238.390625 85.199219 238.230469 85.199219 C 238.230469 84.875 238.769531 84.875 238.933594 84.710938 C 238.769531 84.171875 239.746094 84.007812 239.746094 83.628906 C 239.746094 83.414062 239.960938 83.574219 240.070312 83.46875 C 240.179688 83.304688 240.125 83.140625 240.234375 82.925781 C 240.394531 82.765625 240.773438 82.601562 240.992188 82.4375 C 241.261719 82.277344 241.316406 81.898438 241.695312 82.003906 C 241.75 81.898438 241.585938 81.574219 241.695312 81.519531 C 241.75 81.464844 242.019531 81.519531 242.074219 81.519531 C 242.453125 81.140625 242.832031 80.761719 243.589844 80.433594 C 243.589844 80.21875 243.589844 80.054688 243.589844 79.949219 C 243.699219 79.949219 243.859375 79.949219 244.078125 79.949219 C 243.914062 79.785156 243.75 79.679688 243.589844 79.625 C 243.644531 79.40625 244.671875 79.625 244.457031 80.21875 Z M 232.4375 92.5625 C 232.761719 92.617188 232.273438 93.105469 231.894531 92.996094 C 232.003906 92.886719 232.058594 92.78125 232.058594 92.5625 C 232.21875 92.5625 232.273438 92.617188 232.273438 92.671875 C 232.4375 92.726562 232.4375 92.617188 232.4375 92.5625 Z M 235.902344 87.582031 C 235.683594 87.417969 235.792969 87.257812 236.0625 87.257812 C 236.226562 87.851562 234.980469 87.960938 235.304688 88.285156 C 235.304688 88.558594 234.980469 88.503906 234.820312 88.71875 C 234.65625 88.882812 234.765625 89.421875 234.222656 89.367188 C 234.492188 88.609375 235.253906 88.339844 235.304688 87.417969 C 235.46875 87.527344 235.632812 87.636719 235.902344 87.582031 Z M 236.929688 85.851562 C 237.417969 86.175781 236.390625 86.445312 236.441406 86.988281 C 236.0625 86.660156 236.226562 87.039062 235.683594 86.988281 C 235.957031 86.609375 236.605469 86.554688 236.605469 86.011719 C 236.824219 86.066406 236.929688 85.957031 236.929688 85.851562 Z M 237.90625 84.875 C 237.957031 84.765625 237.742188 84.710938 237.6875 84.710938 C 237.90625 84.496094 238.285156 84.605469 238.230469 84.0625 C 238.609375 84.007812 238.554688 84.820312 238.066406 84.605469 C 237.796875 85.089844 237.6875 85.742188 236.769531 85.6875 C 236.824219 85.363281 237.308594 85.363281 237.527344 85.199219 C 237.363281 84.875 237.796875 84.984375 237.90625 84.875 Z M 233.683594 89.855469 C 234.007812 89.910156 234.0625 89.695312 234.0625 89.53125 C 234.222656 89.53125 234.386719 89.53125 234.65625 89.53125 C 234.710938 89.746094 234.007812 89.800781 233.898438 90.019531 C 233.789062 90.179688 234.007812 90.453125 233.683594 90.453125 C 233.574219 90.453125 233.464844 90.453125 233.355469 90.453125 C 233.410156 90.289062 233.574219 90.34375 233.683594 90.289062 C 233.464844 90.125 233.628906 90.074219 233.683594 89.855469 Z M 232.597656 91.589844 C 232.597656 91.535156 232.925781 91.480469 232.976562 91.425781 C 233.195312 91.101562 233.195312 90.453125 233.683594 90.613281 C 233.628906 90.882812 233.464844 90.992188 233.355469 91.101562 C 233.355469 91.15625 232.925781 91.535156 232.976562 91.589844 C 233.25 91.804688 232.925781 91.75 232.761719 91.859375 C 232.597656 92.128906 232.816406 92.671875 232.273438 92.402344 C 232.273438 92.238281 232.492188 92.292969 232.597656 92.238281 C 232.492188 92.128906 232.546875 91.804688 232.597656 91.589844 Z M 231.136719 93.863281 C 231.300781 93.539062 231.785156 93.589844 231.894531 93.160156 C 232.21875 93.265625 232.003906 93.539062 231.679688 93.539062 C 231.679688 93.753906 231.679688 93.972656 231.679688 94.1875 C 231.300781 94.1875 231.40625 93.863281 231.136719 93.863281 Z M 230.8125 95 C 230.921875 94.945312 231.082031 94.457031 231.136719 94.457031 C 231.355469 94.402344 231.355469 95 230.8125 95 Z M 229.40625 97.382812 C 229.511719 97.921875 229.027344 97.921875 229.132812 97.382812 C 229.40625 97.382812 229.296875 97.003906 229.511719 97.003906 C 229.566406 97.21875 229.511719 97.382812 229.40625 97.382812 Z M 251.332031 74.640625 C 251.007812 74.425781 250.789062 74.046875 250.628906 73.882812 C 250.464844 73.667969 250.25 73.777344 250.03125 73.667969 C 249.976562 73.613281 249.976562 73.453125 249.871094 73.398438 C 249.761719 73.289062 249.4375 73.234375 249.328125 73.234375 C 249.113281 73.125 248.894531 73.125 248.570312 73.074219 C 248.410156 73.019531 248.460938 72.910156 248.410156 72.910156 C 247.8125 72.695312 246.839844 72.585938 246.621094 72.207031 C 246.566406 72.207031 246.296875 72.261719 246.242188 72.207031 C 246.078125 72.152344 246.027344 71.988281 245.863281 71.933594 C 245.59375 71.828125 245.375 71.933594 245.214844 71.773438 C 244.78125 71.609375 244.617188 71.71875 244.238281 71.609375 C 244.023438 71.609375 243.96875 71.503906 243.699219 71.449219 C 241.425781 71.285156 238.445312 71.933594 235.683594 72.910156 C 234.925781 73.179688 233.953125 73.558594 233.355469 73.882812 C 232.976562 74.046875 232.707031 74.371094 232.4375 74.371094 C 232.058594 74.371094 232.164062 74.589844 231.679688 74.640625 C 231.515625 74.640625 231.625 74.75 231.515625 74.804688 C 231.355469 74.859375 231.136719 74.859375 231.027344 74.96875 C 230.703125 75.183594 230.488281 75.617188 230.269531 75.617188 C 230 75.617188 229.621094 75.886719 229.511719 75.941406 C 229.027344 76.265625 228.375 77.023438 228.050781 77.347656 C 228.050781 77.402344 227.78125 77.296875 227.726562 77.347656 C 227.617188 77.402344 227.78125 77.566406 227.726562 77.621094 C 227.617188 77.675781 227.402344 77.566406 227.347656 77.621094 C 227.292969 77.78125 227.347656 77.945312 227.347656 78.054688 C 227.292969 78.054688 227.078125 78.160156 227.023438 78.214844 C 226.589844 78.488281 226.101562 78.972656 226.101562 79.191406 C 226.046875 79.351562 225.777344 79.625 225.722656 79.785156 C 225.613281 79.894531 225.507812 79.949219 225.398438 80.054688 C 225.234375 80.21875 225.234375 80.433594 225.128906 80.597656 C 225.074219 80.707031 224.855469 80.761719 224.75 80.867188 C 224.75 81.03125 224.695312 81.246094 224.640625 81.355469 C 224.097656 82.386719 224.097656 83.25 224.476562 84.226562 C 224.75 84.226562 224.910156 84.710938 224.964844 84.710938 C 225.011719 84.710938 225.179688 84.632812 225.15625 84.609375 C 225.570312 84.710938 225.785156 84.660156 226.101562 84.710938 C 226.265625 84.765625 226.265625 84.929688 226.371094 85.039062 C 226.804688 85.253906 226.96875 84.820312 227.132812 85.039062 C 227.183594 85.089844 227.132812 85.308594 227.132812 85.363281 C 227.292969 85.417969 227.78125 85.472656 227.890625 85.472656 L 227.890625 85.363281 C 227.996094 85.253906 228.105469 85.472656 228.050781 85.472656 C 228.214844 85.472656 228.214844 85.363281 228.269531 85.363281 C 228.484375 85.308594 228.375 85.523438 228.429688 85.6875 C 228.539062 85.796875 228.699219 85.472656 228.648438 85.472656 C 228.863281 85.472656 228.972656 85.523438 229.132812 85.6875 C 229.351562 84.820312 229.675781 83.683594 230.054688 83.140625 C 230.269531 82.816406 231.246094 81.195312 231.515625 81.195312 C 231.734375 81.195312 231.625 81.140625 231.679688 81.03125 C 232.328125 80.542969 232.816406 79.894531 233.355469 79.460938 C 233.84375 79.082031 234.332031 78.59375 234.820312 78.378906 C 234.980469 78.269531 234.980469 78.109375 235.144531 78.054688 C 235.304688 77.945312 235.523438 78 235.683594 77.890625 C 236.011719 77.621094 236.171875 77.347656 236.441406 77.1875 C 236.550781 77.078125 236.714844 77.132812 236.929688 77.023438 C 237.09375 76.96875 237.253906 76.808594 237.363281 76.753906 C 237.363281 76.753906 237.472656 76.753906 237.527344 76.753906 C 237.742188 76.753906 237.578125 76.644531 237.6875 76.59375 C 237.90625 76.539062 238.066406 76.539062 238.230469 76.375 C 238.285156 76.320312 238.5 76.105469 238.609375 76.050781 C 238.824219 75.996094 238.988281 75.996094 239.148438 75.941406 C 239.257812 75.886719 239.148438 75.832031 239.3125 75.78125 C 239.855469 75.671875 239.746094 75.617188 240.070312 75.453125 C 240.449219 75.292969 240.773438 75.238281 241.207031 75.183594 C 241.804688 74.914062 242.453125 74.640625 243.15625 74.480469 C 243.699219 74.371094 245.269531 73.9375 245.320312 74.210938 C 245.214844 74.75 244.890625 75.238281 244.5625 75.453125 C 244.347656 75.78125 244.238281 75.996094 244.078125 76.210938 C 244.023438 76.320312 243.804688 76.484375 243.699219 76.59375 C 243.480469 76.808594 243.210938 76.917969 242.941406 77.1875 C 242.777344 77.457031 242.667969 77.78125 242.453125 78.054688 C 242.183594 78.269531 241.910156 78.433594 241.695312 78.648438 C 241.261719 79.136719 240.71875 79.515625 240.234375 79.949219 C 240.015625 80.109375 239.746094 80.382812 239.527344 80.597656 C 239.367188 80.707031 239.097656 80.652344 238.933594 80.761719 C 238.878906 80.867188 238.933594 81.085938 238.824219 81.195312 C 238.554688 81.410156 238.121094 81.519531 237.90625 81.625 C 237.578125 81.898438 237.363281 82.167969 237.199219 82.332031 C 237.09375 82.386719 237.09375 82.65625 236.929688 82.765625 C 236.875 82.816406 236.660156 82.710938 236.605469 82.765625 C 236.550781 82.816406 236.660156 83.089844 236.605469 83.140625 C 236.335938 83.359375 236.117188 83.519531 235.902344 83.792969 C 235.359375 84.226562 234.871094 84.660156 234.386719 85.039062 C 234.167969 85.253906 234.113281 85.632812 233.898438 85.851562 C 233.628906 86.121094 233.410156 86.230469 233.195312 86.445312 C 232.761719 86.933594 232.546875 87.3125 232.273438 87.582031 C 232.003906 87.851562 231.894531 88.125 231.679688 88.449219 C 231.570312 88.609375 231.40625 88.609375 231.355469 88.71875 C 231.191406 88.882812 231.246094 88.988281 231.136719 89.207031 C 231.082031 89.261719 230.867188 89.421875 230.8125 89.53125 C 230.703125 89.695312 230.757812 89.855469 230.648438 90.019531 C 230.488281 90.125 230.269531 90.234375 230.269531 90.289062 C 230.054688 90.613281 230.054688 90.992188 229.890625 91.265625 C 229.839844 91.371094 229.730469 91.265625 229.675781 91.425781 C 229.621094 91.640625 229.621094 91.75 229.511719 91.859375 C 229.351562 92.238281 229.511719 92.402344 229.40625 92.671875 C 229.351562 92.78125 228.972656 92.941406 228.972656 92.996094 C 228.808594 93.429688 228.917969 93.753906 228.753906 94.1875 C 228.753906 94.1875 228.484375 94.351562 228.429688 94.457031 C 228.269531 94.890625 228.375 95 228.269531 95.269531 C 228.214844 95.378906 228.105469 95.378906 228.050781 95.433594 C 227.890625 96.027344 227.835938 96.515625 227.726562 97.003906 C 227.671875 97.058594 227.5625 97.058594 227.511719 97.164062 C 227.292969 97.921875 227.292969 98.464844 227.347656 99.277344 C 227.78125 99.382812 227.835938 99.765625 228.269531 99.925781 C 228.269531 100.035156 228.269531 100.089844 228.429688 100.089844 C 228.808594 100.089844 228.808594 99.546875 229.132812 99.925781 C 229.1875 100.144531 229.132812 100.25 229.40625 100.089844 C 229.460938 99.980469 230.269531 100.792969 230.269531 100.414062 C 230.488281 100.46875 230.378906 100.628906 230.8125 100.683594 C 231.082031 100.738281 231.460938 100.683594 231.515625 100.523438 C 231.785156 100.574219 231.679688 101.007812 232.273438 100.847656 C 232.492188 100.792969 232.4375 100.574219 232.4375 100.414062 C 232.4375 100.25 232.597656 100.304688 232.597656 100.25 C 232.707031 99.765625 232.597656 99.222656 232.761719 98.953125 C 232.816406 98.898438 233.085938 98.898438 233.195312 98.84375 C 233.304688 98.519531 233.25 98.195312 233.355469 97.976562 C 233.410156 97.816406 233.519531 97.816406 233.683594 97.652344 C 233.734375 97.652344 233.683594 97.382812 233.683594 97.382812 C 233.953125 96.894531 234.167969 96.625 234.222656 96.246094 C 234.222656 95.867188 234.601562 95.757812 234.65625 95.59375 C 234.65625 95.214844 234.980469 95.378906 234.980469 95 C 234.980469 94.78125 235.089844 94.890625 235.144531 94.835938 C 235.414062 94.296875 235.632812 93.917969 235.902344 93.539062 C 235.957031 93.429688 236.226562 93.429688 236.28125 93.320312 C 236.335938 93.210938 236.171875 92.996094 236.28125 92.832031 C 236.390625 92.671875 236.660156 92.5625 236.769531 92.402344 C 236.929688 92.183594 236.984375 91.914062 237.199219 91.75 C 237.199219 91.75 237.363281 91.804688 237.363281 91.75 C 237.363281 91.75 237.363281 91.480469 237.363281 91.425781 C 237.472656 91.101562 237.742188 91.101562 237.90625 90.992188 C 238.011719 90.882812 237.957031 90.558594 238.066406 90.453125 C 238.175781 90.289062 238.5 90.179688 238.609375 90.019531 C 238.664062 89.964844 238.609375 89.855469 238.609375 89.855469 C 238.664062 89.53125 239.3125 89.097656 239.527344 88.882812 C 239.691406 88.71875 239.746094 88.664062 239.90625 88.609375 C 239.960938 88.558594 239.855469 88.339844 239.90625 88.285156 C 240.015625 88.015625 240.289062 87.90625 240.449219 87.746094 C 240.558594 87.582031 240.828125 87.417969 240.992188 87.257812 C 241.207031 87.09375 241.207031 86.824219 241.316406 86.609375 C 241.476562 86.445312 241.855469 86.335938 242.074219 86.175781 C 242.453125 85.851562 242.832031 85.472656 243.15625 85.199219 C 243.425781 84.929688 243.320312 84.605469 243.699219 84.605469 C 244.183594 84.550781 244.292969 83.902344 244.457031 83.792969 C 244.457031 83.738281 244.726562 83.847656 244.78125 83.792969 C 244.941406 83.628906 245.050781 83.574219 245.214844 83.46875 C 245.269531 83.414062 245.105469 83.140625 245.214844 83.140625 C 245.539062 82.765625 246.027344 82.492188 246.457031 82.167969 C 246.945312 81.574219 247.867188 80.976562 248.246094 80.597656 C 248.300781 80.542969 248.191406 80.273438 248.246094 80.21875 C 248.300781 80.164062 248.515625 80.273438 248.570312 80.21875 C 248.679688 80.109375 248.679688 79.894531 248.734375 79.785156 C 248.949219 79.625 249.21875 79.570312 249.328125 79.460938 C 249.4375 79.296875 249.382812 79.136719 249.492188 78.972656 C 249.597656 78.867188 249.761719 78.757812 249.871094 78.648438 C 250.789062 77.566406 251.601562 76.320312 251.332031 74.640625 "/><path style=" stroke:none;fill-rule:nonzero;fill:#ffffff;fill-opacity:1;" d="M 231.515625 105.339844 C 230.921875 105.394531 230.597656 105.015625 230.269531 105.015625 C 230.054688 105.015625 230.164062 104.851562 230.054688 104.851562 C 229.566406 104.691406 228.972656 104.636719 228.648438 104.417969 C 228.050781 104.472656 228.269531 104.472656 227.890625 104.257812 C 227.835938 104.367188 227.890625 104.527344 227.726562 104.527344 C 227.617188 104.367188 227.457031 104.257812 227.511719 103.933594 C 226.96875 103.933594 226.804688 103.609375 226.101562 103.660156 C 225.777344 104.257812 225.398438 105.230469 225.128906 106.097656 C 225.074219 106.53125 225.183594 106.855469 225.128906 107.234375 C 225.128906 107.453125 224.964844 107.558594 224.964844 107.882812 C 224.910156 108.425781 225.019531 108.695312 225.128906 108.96875 C 225.183594 109.183594 225.289062 109.183594 225.398438 109.183594 C 225.453125 109.292969 225.234375 109.5625 225.398438 109.671875 C 225.398438 109.671875 225.832031 109.78125 225.886719 109.832031 C 226.046875 109.941406 226.101562 110.160156 226.265625 110.265625 C 226.699219 110.265625 226.804688 109.996094 227.347656 110.105469 C 227.183594 110.644531 227.835938 110.484375 227.890625 110.753906 C 228.269531 110.808594 228.269531 110.589844 228.429688 110.484375 C 228.429688 110.96875 229.027344 110.917969 229.40625 111.242188 C 229.675781 110.753906 230.269531 111.351562 230.8125 111.242188 C 231.082031 110.808594 231.136719 110.105469 231.355469 109.507812 C 231.625 108.371094 232.003906 107.234375 231.894531 105.988281 C 231.625 105.882812 231.515625 105.609375 231.515625 105.339844 "/><path style=" stroke:none;fill-rule:nonzero;fill:#ffffff;fill-opacity:1;" d="M 257.070312 105.339844 C 256.855469 105.285156 256.527344 105.558594 256.472656 105.503906 C 256.3125 105.449219 256.367188 105.015625 256.097656 104.960938 C 255.71875 105.988281 255.554688 104.417969 254.90625 104.636719 C 254.90625 104.90625 254.796875 105.125 254.472656 105.230469 C 254.632812 104.582031 254.09375 104.582031 254.472656 104.3125 C 253.550781 104.367188 253.386719 103.988281 252.902344 104.417969 C 252.847656 104.367188 252.902344 104.148438 252.683594 104.148438 C 252.578125 104.527344 252.578125 105.125 252.304688 105.339844 C 252.199219 104.582031 252.632812 104.367188 252.523438 103.609375 C 251.820312 103.445312 251.492188 103.066406 250.789062 103.445312 C 250.734375 103.335938 250.734375 103.230469 250.519531 103.230469 C 250.085938 104.472656 249.871094 106.800781 249.976562 108.425781 C 249.976562 108.589844 250.085938 108.589844 250.140625 108.644531 C 250.140625 108.75 249.976562 108.859375 249.976562 108.804688 C 249.976562 108.96875 250.085938 108.914062 250.085938 108.96875 C 250.195312 109.183594 250.085938 109.402344 250.085938 109.507812 C 250.25 109.78125 250.898438 109.726562 250.734375 110.160156 C 250.898438 110.214844 251.0625 110.160156 251.0625 110.429688 C 251.441406 110.429688 251.65625 110.375 251.871094 110.160156 C 251.710938 110.753906 252.199219 110.375 252.304688 110.429688 C 252.414062 110.484375 252.523438 110.699219 252.683594 110.753906 C 252.902344 110.808594 253.007812 110.808594 253.28125 110.917969 C 253.660156 111.078125 254.039062 111.351562 254.417969 111.457031 C 254.308594 111.402344 254.6875 111.242188 254.6875 111.242188 C 255.445312 111.078125 255.769531 111.890625 256.3125 111.457031 C 256.3125 109.183594 257.449219 107.992188 257.503906 105.71875 C 257.234375 105.773438 257.234375 105.394531 257.070312 105.339844 "/><path style=" stroke:none;fill-rule:nonzero;fill:#ffffff;fill-opacity:1;" d="M 255.390625 90.9375 C 255.933594 91.046875 255.71875 90.503906 256.042969 90.34375 C 255.769531 90.34375 255.554688 90.34375 255.390625 90.34375 C 255.390625 90.503906 255.390625 90.722656 255.390625 90.9375 "/><path style=" stroke:none;fill-rule:nonzero;fill:#ffffff;fill-opacity:1;" d="M 261.238281 78.703125 C 260.859375 78.539062 261.183594 78.378906 261.238281 78.214844 C 261.617188 78.324219 261.238281 78.488281 261.238281 78.703125 Z M 260.320312 81.519531 C 260.210938 81.519531 260.046875 81.03125 260.15625 80.976562 C 260.371094 80.761719 260.210938 80.707031 260.371094 80.054688 C 260.371094 80.003906 260.535156 80.054688 260.535156 79.949219 C 260.589844 79.894531 260.535156 79.785156 260.589844 79.730469 C 260.644531 79.570312 260.804688 79.246094 261.078125 78.867188 C 261.347656 78.917969 260.804688 79.191406 261.183594 79.246094 C 260.589844 80.054688 260.75 80.707031 260.320312 81.519531 Z M 259.886719 83.25 C 259.34375 83.414062 259.5625 82.816406 259.667969 82.492188 C 259.832031 82.113281 259.941406 81.84375 260.15625 81.625 C 260.320312 81.625 260.265625 81.84375 260.15625 81.84375 C 260.101562 82.003906 260.210938 82.003906 260.320312 82.003906 C 259.886719 82.167969 260.320312 83.140625 259.886719 83.25 Z M 259.398438 80.054688 C 259.667969 79.460938 259.777344 80.433594 259.507812 80.488281 C 259.453125 80.488281 259.289062 80.164062 259.398438 80.054688 Z M 259.019531 79.082031 C 258.964844 78.972656 259.34375 78.59375 259.453125 78.378906 C 259.992188 78.269531 259.074219 79.191406 259.019531 79.082031 Z M 258.964844 80.488281 C 258.804688 80.867188 258.371094 80.597656 258.585938 80.054688 C 258.640625 79.949219 258.804688 79.625 258.964844 79.246094 C 259.289062 79.246094 258.964844 79.40625 258.964844 79.40625 C 258.964844 79.515625 259.183594 79.839844 259.183594 79.730469 C 259.128906 79.949219 258.476562 80.21875 258.964844 80.488281 Z M 258.261719 82.332031 C 257.882812 82.113281 258.476562 81.953125 258.097656 81.519531 C 258.640625 81.519531 258.585938 82.167969 258.261719 82.332031 Z M 258.152344 84.660156 C 258.476562 84.820312 258.261719 84.875 258.152344 85.144531 C 258.042969 85.144531 257.9375 84.929688 257.992188 84.765625 C 257.992188 84.710938 258.097656 84.386719 258.207031 84.226562 C 258.476562 83.902344 258.695312 84.226562 258.152344 84.660156 Z M 257.773438 86.011719 C 257.664062 85.472656 258.152344 85.6875 258.152344 85.308594 C 258.855469 85.363281 257.285156 85.957031 258.371094 85.851562 C 258.316406 86.066406 257.9375 86.011719 257.773438 86.011719 Z M 257.71875 86.933594 C 257.71875 87.09375 257.9375 87.257812 257.503906 87.582031 C 256.90625 87.417969 257.71875 87.257812 257.71875 87.203125 C 257.773438 87.09375 257.449219 86.933594 257.773438 86.714844 C 257.773438 86.5 257.9375 86.609375 257.9375 86.714844 C 257.9375 86.824219 257.71875 86.933594 257.71875 86.933594 Z M 257.015625 89.316406 C 256.582031 89.207031 257.234375 89.042969 257.285156 88.773438 C 257.285156 88.664062 256.90625 88.449219 257.070312 88.070312 C 257.503906 88.125 257.179688 88.882812 257.664062 88.773438 C 257.613281 89.097656 256.960938 88.933594 257.015625 89.316406 Z M 257.234375 89.855469 C 257.070312 89.855469 256.960938 89.855469 256.800781 89.855469 C 256.800781 89.746094 256.800781 89.640625 256.800781 89.421875 C 256.960938 89.421875 257.179688 89.421875 257.234375 89.421875 C 257.234375 89.640625 257.234375 89.746094 257.234375 89.855469 Z M 257.882812 83.414062 C 257.664062 83.25 257.71875 82.492188 258.261719 82.492188 C 258.042969 82.925781 258.261719 83.140625 257.882812 83.574219 C 257.613281 83.574219 257.773438 83.414062 257.882812 83.414062 Z M 257.613281 84.984375 C 257.664062 85.253906 257.070312 85.523438 257.558594 85.851562 C 257.339844 86.390625 257.179688 85.632812 256.960938 85.6875 C 257.285156 85.472656 257.070312 84.929688 257.179688 84.660156 C 257.179688 84.929688 257.9375 83.738281 257.449219 83.902344 C 257.9375 83.140625 257.992188 84.660156 257.613281 84.660156 C 257.339844 84.660156 257.613281 84.820312 257.613281 84.984375 Z M 258.371094 78.867188 C 258.640625 78.648438 258.640625 78.269531 258.804688 78 C 259.074219 77.457031 259.019531 79.136719 258.371094 78.867188 Z M 256.367188 90.019531 C 256.257812 90.179688 256.257812 90.558594 256.203125 91.210938 C 255.554688 91.316406 255.390625 91.046875 254.957031 90.9375 C 255.011719 91.480469 255.5 91.101562 255.121094 91.75 C 255.5 91.804688 255.554688 91.640625 255.554688 91.425781 C 255.933594 91.480469 256.042969 91.695312 255.933594 92.128906 C 255.445312 92.183594 255.5 91.804688 254.957031 91.914062 C 254.6875 91.96875 254.90625 92.238281 255.121094 92.292969 C 255.066406 92.453125 254.90625 92.507812 254.90625 92.617188 C 255.175781 92.5625 255.335938 92.453125 255.335938 92.128906 C 255.5 92.292969 256.097656 92.183594 255.933594 92.617188 C 255.335938 92.507812 255.175781 92.78125 254.742188 92.78125 C 254.796875 92.941406 255.175781 93.429688 254.472656 93.320312 C 254.472656 93.484375 254.796875 93.484375 254.90625 93.484375 C 255.011719 93.808594 254.253906 94.1875 254.851562 94.351562 C 254.796875 94.566406 254.472656 94.511719 254.199219 94.511719 C 254.09375 94.78125 254.6875 94.621094 254.6875 94.730469 C 254.742188 95.378906 254.039062 96.136719 254.363281 96.785156 C 253.984375 96.949219 254.199219 97.382812 253.769531 96.949219 C 253.875 97.164062 253.984375 97.382812 254.308594 97.382812 C 254.253906 97.761719 254.09375 98.195312 253.769531 97.867188 C 253.714844 98.140625 253.875 98.246094 254.09375 98.355469 C 254.148438 98.519531 253.714844 98.679688 253.714844 98.734375 C 253.714844 98.84375 254.039062 99.113281 254.039062 99.058594 C 253.929688 99.382812 253.550781 98.84375 253.496094 99.4375 C 253.335938 99.65625 253.0625 97.707031 253.335938 97.488281 C 253.550781 97.382812 253.386719 97.382812 253.386719 96.949219 C 253.335938 96.785156 253.335938 96.515625 253.386719 96.296875 L 253.605469 96.296875 C 253.714844 96.027344 253.496094 95.59375 253.820312 95.59375 C 253.605469 95.160156 253.386719 95.378906 253.660156 94.945312 C 253.660156 94.890625 253.605469 94.566406 253.660156 94.511719 C 253.929688 94.351562 253.714844 94.457031 253.660156 94.351562 C 253.605469 94.1875 253.875 94.1875 253.875 94.1875 C 253.875 94.1875 253.605469 93.917969 253.660156 93.863281 C 253.929688 93.644531 253.714844 93.539062 253.929688 92.941406 C 253.929688 92.941406 254.253906 92.996094 254.253906 92.941406 C 254.363281 92.78125 253.984375 92.886719 253.929688 92.78125 C 253.929688 92.726562 254.09375 92.5625 254.09375 92.507812 C 254.148438 92.292969 253.714844 91.75 254.09375 91.75 C 254.472656 91.75 254.09375 91.589844 254.148438 91.589844 C 254.09375 91.425781 254.308594 91.425781 254.308594 91.425781 C 254.308594 91.210938 254.148438 91.316406 254.148438 91.210938 C 254.09375 91.046875 254.308594 91.15625 254.363281 91.046875 C 254.417969 90.9375 254.148438 90.9375 254.148438 90.9375 C 254.148438 90.832031 254.308594 90.667969 254.363281 90.503906 C 254.472656 90.179688 254.308594 90.074219 254.632812 89.855469 C 254.796875 89.746094 254.6875 89.367188 255.011719 89.421875 C 254.472656 89.207031 254.796875 88.125 255.285156 87.746094 C 255.066406 87.582031 255.066406 87.148438 255.121094 86.714844 C 255.769531 86.769531 255.285156 86.609375 255.335938 86.230469 C 255.335938 86.230469 255.554688 86.175781 255.554688 86.011719 C 255.554688 85.957031 255.554688 85.902344 255.554688 85.851562 C 255.554688 85.796875 255.71875 85.632812 255.71875 85.6875 C 255.769531 85.199219 255.445312 85.253906 255.769531 84.765625 C 255.769531 84.710938 256.367188 83.953125 255.769531 83.738281 C 255.71875 83.574219 256.203125 83.683594 256.257812 83.574219 C 256.472656 83.195312 256.367188 82.332031 256.472656 81.84375 L 256.691406 81.84375 C 256.746094 81.734375 256.636719 81.519531 256.691406 81.519531 C 256.691406 81.464844 256.960938 81.195312 256.90625 81.140625 C 256.691406 80.921875 256.855469 81.03125 257.179688 80.976562 C 256.90625 80.761719 256.90625 80.382812 256.960938 79.949219 C 257.070312 79.839844 257.558594 79.679688 257.613281 79.570312 C 257.664062 79.351562 257.234375 79.191406 257.613281 78.867188 C 257.558594 78.917969 257.882812 77.675781 257.664062 77.835938 C 257.773438 77.566406 257.9375 77.457031 258.207031 77.511719 C 258.476562 77.296875 258.042969 77.1875 258.042969 77.132812 C 258.042969 77.023438 258.585938 76.753906 258.53125 76.644531 L 258.261719 76.644531 C 258.316406 76.484375 258.476562 75.996094 258.910156 76.050781 C 258.910156 75.941406 258.695312 75.996094 258.53125 75.941406 C 258.53125 75.507812 258.855469 75.402344 258.75 74.859375 C 258.964844 74.859375 259.128906 74.859375 259.34375 74.859375 C 259.667969 75.183594 259.234375 75.292969 259.128906 75.5625 C 259.019531 75.832031 259.183594 76.160156 259.074219 76.484375 C 259.074219 76.484375 258.910156 76.484375 258.855469 76.644531 C 258.855469 76.699219 258.910156 76.808594 258.855469 76.808594 C 258.804688 76.863281 258.695312 76.96875 258.695312 76.96875 C 258.476562 77.566406 258.476562 78.378906 258.152344 79.082031 C 258.152344 79.082031 257.992188 79.191406 257.9375 79.246094 C 257.9375 79.351562 257.992188 79.460938 257.9375 79.570312 C 257.9375 79.839844 258.207031 79.625 258.152344 79.570312 C 258.75 79.949219 257.828125 80.109375 258.316406 80.488281 C 258.316406 80.761719 257.828125 80.707031 257.9375 81.140625 C 257.71875 81.246094 257.828125 80.816406 257.773438 80.761719 C 257.503906 80.761719 257.339844 81.519531 257.285156 81.84375 C 257.503906 81.898438 257.503906 81.789062 257.503906 81.625 C 257.882812 81.140625 257.71875 82.332031 257.070312 82.003906 C 257.179688 82.710938 256.855469 83.25 256.636719 83.738281 C 257.234375 84.007812 256.90625 83.359375 257.070312 83.089844 C 257.070312 83.035156 257.449219 82.710938 257.503906 82.710938 C 257.503906 82.546875 257.179688 82.386719 257.285156 82.222656 C 257.503906 82.277344 257.773438 82.386719 257.664062 82.710938 C 257.664062 82.765625 257.179688 83.140625 257.234375 83.25 C 257.449219 83.414062 257.285156 83.304688 257.234375 83.574219 C 257.234375 83.683594 257.285156 83.847656 257.234375 83.902344 L 257.015625 83.902344 C 256.90625 84.226562 257.234375 84.820312 256.367188 84.660156 C 256.421875 84.820312 256.746094 84.765625 257.015625 84.765625 C 256.855469 84.929688 256.746094 85.089844 256.746094 85.308594 C 256.582031 85.308594 256.636719 85.089844 256.582031 84.984375 C 255.878906 84.929688 256.746094 85.472656 256.746094 85.472656 C 256.746094 85.523438 256.582031 85.851562 256.527344 86.011719 C 256.472656 86.335938 256.746094 86.554688 256.527344 86.714844 C 255.71875 86.714844 256.421875 86.554688 256.367188 86.230469 C 256.097656 86.28125 255.933594 86.390625 255.933594 86.714844 C 256.3125 87.09375 256.636719 86.769531 256.3125 87.417969 C 256.636719 87.472656 256.636719 87.257812 256.90625 87.203125 C 256.421875 87.09375 257.339844 86.554688 256.746094 86.335938 C 256.636719 86.28125 257.234375 86.121094 257.339844 86.230469 C 257.71875 86.5 256.746094 86.824219 257.339844 86.933594 C 256.90625 87.257812 256.960938 87.960938 256.472656 88.285156 C 257.070312 88.609375 256.148438 89.367188 256.636719 89.421875 C 256.472656 90.019531 256.367188 89.207031 256.042969 89.316406 C 256.582031 88.882812 256.042969 88.503906 256.472656 88.070312 C 256.527344 87.582031 255.878906 88.558594 255.878906 87.90625 C 255.878906 87.203125 256.203125 87.90625 256.691406 87.746094 C 256.746094 87.472656 256.257812 87.691406 256.097656 87.582031 C 255.988281 87.472656 256.3125 87.039062 255.933594 87.09375 C 255.5 87.09375 256.203125 87.472656 255.664062 87.746094 C 255.609375 88.230469 256.042969 88.070312 255.609375 88.503906 C 255.769531 88.503906 255.878906 88.394531 255.878906 88.285156 C 255.988281 88.230469 256.148438 88.609375 256.097656 88.664062 C 256.042969 88.664062 255.609375 88.609375 255.609375 88.664062 C 255.609375 88.773438 255.933594 88.988281 255.769531 89.421875 C 255.769531 89.800781 255.554688 89.855469 255.554688 90.234375 C 255.988281 90.179688 256.097656 89.910156 256.042969 89.421875 C 256.3125 89.855469 256.746094 90.019531 257.234375 90.234375 C 256.960938 90.722656 256.691406 90.019531 256.367188 90.019531 Z M 256.582031 90.722656 C 256.582031 90.667969 257.015625 90.34375 257.179688 90.503906 C 257.339844 90.667969 256.367188 91.046875 256.582031 90.722656 Z M 256.527344 92.128906 C 255.988281 91.914062 256.367188 91.804688 256.367188 91.425781 C 256.800781 91.480469 256.800781 91.859375 256.527344 92.128906 Z M 256.3125 93.863281 C 256.042969 93.863281 255.71875 93.863281 255.5 93.863281 C 255.445312 94.511719 255.554688 95.324219 254.796875 95.433594 C 254.742188 95.105469 254.957031 95 255.011719 94.945312 C 255.066406 94.890625 255.011719 94.566406 255.066406 94.511719 C 255.285156 94.351562 254.957031 94.296875 255.285156 94.1875 C 255.445312 93.972656 255.066406 93.917969 255.066406 93.863281 C 255.066406 93.753906 255.285156 93.644531 255.285156 93.484375 C 255.285156 93.210938 255.011719 92.617188 255.664062 92.78125 C 255.71875 93.210938 255.335938 93.160156 255.5 93.699219 C 255.554688 93.699219 255.71875 93.699219 255.878906 93.699219 C 256.367188 93.644531 255.933594 93.105469 255.933594 93.160156 C 255.988281 92.941406 256.257812 92.941406 256.367188 92.78125 C 256.367188 92.671875 256.042969 92.453125 256.367188 92.292969 C 257.179688 92.671875 256.148438 92.996094 256.3125 93.863281 Z M 256.042969 94.945312 C 255.609375 94.835938 255.609375 94.621094 255.878906 94.351562 C 256.042969 94.351562 256.148438 94.351562 256.3125 94.351562 C 256.148438 94.511719 256.042969 94.621094 256.042969 94.945312 Z M 255.554688 96.515625 C 255.769531 96.351562 255.71875 96.082031 255.769531 95.757812 C 255.769531 95.757812 255.554688 95.488281 255.769531 95.59375 C 255.664062 95.539062 256.042969 95.8125 256.042969 95.757812 C 256.042969 95.8125 256.257812 96.570312 255.554688 96.515625 Z M 254.957031 96.515625 C 254.253906 96.460938 255.390625 95.703125 254.796875 95.757812 C 255.335938 95.214844 255.175781 96.246094 254.957031 96.515625 Z M 254.578125 98.03125 C 254.472656 98.03125 254.796875 97.761719 254.796875 97.707031 C 254.796875 97.707031 254.417969 97.4375 254.796875 97.488281 C 254.632812 97.488281 254.957031 97.816406 254.957031 97.707031 C 255.011719 97.867188 254.6875 98.140625 254.578125 98.03125 Z M 260.046875 73.289062 C 260.589844 73.722656 259.183594 73.882812 259.507812 74.695312 C 258.316406 74.425781 259.613281 73.667969 260.046875 73.289062 Z M 263.511719 74.859375 C 263.457031 74.695312 263.785156 74.640625 263.785156 74.480469 C 263.890625 74.210938 263.945312 73.9375 264.054688 73.613281 C 263.785156 73.613281 263.835938 73.398438 263.835938 73.125 C 262.972656 73.019531 262.59375 72.476562 261.457031 72.640625 C 261.402344 72.042969 260.644531 72.097656 260.046875 72.042969 C 259.613281 71.394531 259.183594 71.503906 258.476562 71.394531 C 258.042969 72.746094 257.71875 73.9375 257.339844 75.238281 C 257.234375 75.507812 257.179688 75.941406 257.070312 76.210938 C 256.90625 76.808594 256.472656 77.78125 256.421875 78.378906 C 256.367188 78.488281 256.257812 78.433594 256.257812 78.488281 C 255.988281 79.191406 255.933594 79.949219 255.71875 80.21875 C 255.554688 80.652344 255.554688 80.976562 255.335938 81.140625 C 255.230469 81.195312 255.5 81.410156 255.5 81.300781 C 255.390625 81.789062 255.230469 82.113281 255.066406 82.222656 C 255.011719 82.222656 255.066406 82.601562 255.066406 82.710938 C 255.066406 82.816406 254.851562 82.816406 254.851562 82.871094 C 254.796875 83.359375 254.742188 83.792969 254.632812 84.226562 C 254.472656 84.820312 254.417969 84.765625 254.363281 85.308594 C 254.308594 85.472656 254.148438 85.472656 254.148438 85.472656 C 253.984375 86.175781 253.984375 86.933594 253.929688 87.582031 C 253.875 87.746094 253.714844 87.796875 253.714844 87.90625 C 253.605469 88.125 253.714844 88.449219 253.660156 88.664062 C 253.605469 88.828125 253.496094 89.042969 253.441406 89.316406 C 253.28125 90.074219 253.117188 90.667969 252.957031 91.425781 C 252.578125 93.050781 252.46875 94.78125 252.199219 96.515625 C 252.144531 96.675781 252.035156 96.675781 251.980469 96.949219 C 251.820312 97.976562 251.980469 98.84375 251.820312 99.710938 C 252.46875 99.65625 252.25 100.25 252.847656 100.144531 C 253.660156 100.25 253.386719 99.382812 254.039062 99.4375 C 253.984375 99.65625 253.769531 99.65625 253.660156 99.980469 C 253.875 99.980469 254.09375 100.25 253.875 100.304688 C 253.820312 100.144531 253.550781 99.816406 253.441406 100.144531 C 253.984375 100.25 254.09375 100.953125 254.417969 100.628906 C 254.632812 100.46875 254.632812 100.953125 254.6875 100.953125 C 254.90625 101.28125 255.664062 100.902344 255.769531 100.953125 C 256.203125 100.628906 256.042969 100.414062 255.878906 100.304688 C 255.664062 100.195312 256.097656 100.144531 256.097656 100.144531 C 256.257812 99.816406 256.203125 99.816406 256.097656 99.601562 C 255.933594 99.058594 256.3125 98.625 255.933594 98.355469 C 256.203125 98.300781 256.367188 98.355469 256.148438 98.195312 C 255.988281 98.085938 256.367188 98.03125 256.367188 98.03125 C 256.367188 97.921875 256.097656 97.761719 256.148438 97.707031 C 256.203125 97.597656 256.582031 97.707031 256.527344 97.488281 C 256.3125 97.4375 256.148438 97.328125 256.203125 96.949219 C 256.636719 96.675781 256.257812 96.351562 256.367188 95.757812 C 256.421875 95.757812 256.582031 95.703125 256.582031 95.59375 C 256.636719 95.488281 256.582031 95.324219 256.636719 95.214844 C 256.691406 95.105469 257.015625 95 257.015625 94.945312 L 256.636719 94.945312 C 256.421875 94.78125 256.855469 94.351562 256.855469 94.351562 C 256.90625 94.1875 256.636719 94.1875 256.636719 94.023438 C 256.746094 93.699219 257.015625 93.429688 257.179688 92.941406 C 257.179688 92.996094 256.90625 92.886719 256.90625 92.78125 C 256.90625 92.671875 257.179688 92.617188 257.179688 92.617188 C 257.234375 92.023438 257.285156 91.75 257.339844 91.589844 C 257.613281 90.9375 257.558594 90.234375 257.828125 89.855469 C 257.9375 89.640625 257.9375 89.640625 257.828125 89.421875 C 257.71875 89.367188 257.9375 88.933594 257.882812 88.773438 C 258.042969 88.664062 258.207031 88.230469 258.261719 88.070312 C 258.261719 88.015625 258.261719 87.960938 258.261719 87.90625 C 258.261719 87.796875 258.53125 87.796875 258.53125 87.746094 C 258.640625 87.417969 258.261719 87.367188 258.316406 87.09375 C 258.316406 87.09375 258.75 86.988281 258.75 86.933594 C 258.804688 86.714844 258.53125 86.660156 258.585938 86.5 C 258.585938 86.335938 258.75 86.28125 258.75 86.230469 C 258.804688 85.957031 258.585938 85.796875 258.585938 85.6875 C 258.640625 85.632812 259.234375 85.632812 258.964844 85.308594 C 259.074219 85.144531 259.128906 84.820312 259.234375 84.496094 C 259.34375 84.0625 259.234375 83.359375 259.886719 83.414062 C 259.507812 84.710938 258.75 86.121094 259.128906 87.09375 C 258.804688 87.3125 258.640625 87.691406 258.53125 88.070312 C 258.53125 88.070312 258.695312 88.070312 258.75 88.070312 C 258.804688 88.230469 258.53125 88.339844 258.53125 88.285156 C 258.476562 88.558594 258.53125 88.71875 258.476562 88.988281 C 258.476562 89.097656 258.207031 89.152344 258.207031 89.152344 C 258.207031 89.261719 258.476562 89.53125 258.476562 89.421875 C 258.316406 90.074219 257.828125 90.558594 258.152344 91.046875 C 257.9375 91.046875 257.882812 90.832031 257.773438 91.046875 C 258.152344 91.101562 257.828125 91.425781 257.773438 91.589844 C 257.773438 91.589844 258.042969 91.589844 257.9375 91.75 C 257.9375 91.804688 257.503906 91.75 257.558594 91.914062 C 257.664062 91.914062 257.773438 92.023438 257.558594 92.128906 C 257.339844 92.617188 257.828125 92.617188 257.71875 92.941406 C 257.070312 92.617188 257.71875 92.996094 257.285156 93.320312 C 257.558594 93.429688 257.503906 93.539062 257.285156 93.699219 C 257.179688 93.753906 257.449219 93.917969 257.503906 93.863281 C 257.339844 94.402344 256.960938 94.242188 257.285156 94.511719 C 257.773438 95 256.800781 95.59375 256.800781 95.59375 C 256.746094 95.648438 256.800781 95.8125 256.800781 95.917969 C 256.746094 96.136719 257.015625 96.296875 257.015625 96.296875 C 256.960938 96.570312 256.636719 96.460938 256.582031 96.625 C 257.070312 96.949219 256.3125 97.382812 256.746094 97.867188 C 256.203125 98.625 256.367188 98.898438 256.472656 99.710938 C 256.421875 100.035156 256.148438 100.089844 256.097656 100.304688 C 256.203125 100.304688 256.3125 100.359375 256.257812 100.46875 C 256.257812 100.683594 256.257812 100.902344 256.257812 101.226562 C 256.421875 101.226562 256.527344 100.902344 256.636719 101.226562 C 256.855469 101.226562 257.179688 101.0625 256.800781 100.953125 C 256.800781 99.980469 257.179688 99.382812 257.339844 98.734375 C 257.339844 98.519531 257.285156 98.355469 257.339844 98.195312 C 257.394531 98.03125 257.558594 97.816406 257.558594 97.707031 C 257.558594 97.597656 257.339844 97.488281 257.339844 97.488281 C 257.339844 97.382812 257.558594 97.328125 257.558594 97.164062 C 257.664062 96.625 257.71875 96.136719 257.828125 95.59375 C 257.9375 95.054688 258.207031 94.730469 258.261719 94.1875 C 258.316406 93.539062 258.640625 93.050781 258.75 92.507812 C 259.128906 90.882812 259.507812 89.367188 259.886719 88.070312 C 260.15625 87.203125 260.320312 86.066406 260.589844 85.472656 C 260.75 85.144531 260.75 85.039062 260.804688 84.660156 C 260.859375 84.332031 261.078125 84.171875 260.804688 84.0625 C 260.699219 83.953125 261.078125 83.902344 261.078125 83.902344 C 261.183594 83.304688 261.347656 82.492188 261.511719 82.222656 C 261.511719 82.167969 261.511719 82.058594 261.511719 82.003906 C 261.511719 81.898438 261.726562 81.898438 261.726562 81.84375 C 261.835938 81.410156 261.835938 81.03125 261.941406 80.652344 C 262.105469 80.054688 262.050781 80.109375 262.160156 79.730469 C 262.214844 79.679688 262.429688 79.570312 262.429688 79.570312 C 262.648438 78.917969 262.59375 78.269531 262.863281 78 C 263.078125 77.835938 262.808594 77.457031 263.078125 77.296875 C 263.132812 77.296875 263.078125 76.863281 263.078125 76.808594 C 263.132812 76.644531 263.296875 76.699219 263.296875 76.644531 C 263.457031 75.996094 263.242188 75.941406 263.511719 75.78125 C 263.566406 75.726562 263.511719 75.292969 263.511719 75.238281 C 263.511719 75.074219 263.785156 75.074219 263.785156 75.023438 C 263.835938 74.859375 263.511719 74.914062 263.511719 74.859375 "/><path style=" stroke:none;fill-rule:nonzero;fill:#ffffff;fill-opacity:1;" d="M 255.230469 89.421875 C 255.175781 89.585938 255.285156 89.855469 255.445312 89.855469 C 255.554688 89.855469 255.554688 88.882812 255.230469 89.421875 "/><path style=" stroke:none;fill-rule:nonzero;fill:#ffffff;fill-opacity:1;" d="M 257.558594 80.652344 C 257.664062 80.652344 257.828125 80.652344 257.9375 80.652344 C 257.9375 80.273438 257.992188 80.054688 258.152344 79.949219 C 257.449219 79.679688 257.992188 80.542969 257.558594 80.488281 C 257.558594 80.382812 257.394531 80.21875 257.339844 80.488281 C 257.503906 80.488281 257.613281 80.488281 257.558594 80.652344 "/><g style="fill:#013b74;fill-opacity:1;"><g transform="translate(79.613782, 198.728187)"><path style="stroke:none" d="M -6.015625 -17.484375 C -6.578125 -18.566406 -7.097656 -19.628906 -7.578125 -20.671875 C -8.066406 -21.710938 -8.351562 -22.722656 -8.4375 -23.703125 C -8.53125 -24.691406 -8.273438 -25.21875 -7.671875 -25.28125 C -7.535156 -25.289062 -7.316406 -25.269531 -7.015625 -25.21875 C -6.722656 -25.175781 -6.34375 -24.835938 -5.875 -24.203125 C -5.414062 -23.566406 -4.957031 -22.769531 -4.5 -21.8125 C -4.050781 -20.863281 -3.625 -19.820312 -3.21875 -18.6875 C -2.8125 -17.550781 -2.445312 -16.445312 -2.125 -15.375 C -1.4375 -13.113281 -1.046875 -11.5 -0.953125 -10.53125 C -0.867188 -9.570312 -0.890625 -8.519531 -1.015625 -7.375 C -1.140625 -6.226562 -1.40625 -5.15625 -1.8125 -4.15625 C -2.757812 -1.800781 -4.363281 -0.523438 -6.625 -0.328125 C -6.789062 -0.304688 -7.125 -0.269531 -7.625 -0.21875 C -8.125 -0.175781 -8.859375 -0.316406 -9.828125 -0.640625 C -10.796875 -0.972656 -11.773438 -1.515625 -12.765625 -2.265625 C -13.765625 -3.015625 -14.707031 -3.898438 -15.59375 -4.921875 C -17.457031 -7.085938 -18.757812 -9.421875 -19.5 -11.921875 C -19.78125 -12.796875 -19.945312 -13.53125 -20 -14.125 C -20.050781 -14.71875 -20.085938 -15.207031 -20.109375 -15.59375 C -20.128906 -15.976562 -20.132812 -16.378906 -20.125 -16.796875 C -20.125 -17.222656 -20.054688 -17.597656 -19.921875 -17.921875 C -19.617188 -18.671875 -18.945312 -19.09375 -17.90625 -19.1875 C -17.238281 -19.25 -16.546875 -18.835938 -15.828125 -17.953125 C -15.640625 -17.722656 -15.460938 -17.515625 -15.296875 -17.328125 C -15.929688 -17.140625 -16.457031 -16.910156 -16.875 -16.640625 C -17.300781 -16.378906 -17.476562 -15.878906 -17.40625 -15.140625 C -16.414062 -11.941406 -15.125 -9.226562 -13.53125 -7 C -11.707031 -4.488281 -9.925781 -3.3125 -8.1875 -3.46875 C -8 -3.488281 -7.789062 -3.523438 -7.5625 -3.578125 C -5.800781 -3.734375 -4.609375 -4.523438 -3.984375 -5.953125 C -3.515625 -7.023438 -3.351562 -8.367188 -3.5 -9.984375 C -3.644531 -11.609375 -3.957031 -12.992188 -4.4375 -14.140625 C -4.925781 -15.296875 -5.453125 -16.410156 -6.015625 -17.484375 Z M -6.015625 -17.484375 "/></g></g><g style="fill:#013b74;fill-opacity:1;"><g transform="translate(77.774637, 169.502136)"><path style="stroke:none" d="M 4.09375 -20.296875 C 4.5 -19.953125 4.582031 -19.269531 4.34375 -18.25 C 4.113281 -17.238281 3.632812 -16.816406 2.90625 -16.984375 C -0.289062 -17.722656 -2.5 -18.164062 -3.71875 -18.3125 C -6.394531 -18.675781 -7.921875 -18.484375 -8.296875 -17.734375 C -9.117188 -15.867188 -9.671875 -14.320312 -9.953125 -13.09375 C -10.242188 -11.863281 -10.109375 -10.765625 -9.546875 -9.796875 C -8.992188 -8.828125 -7.90625 -7.929688 -6.28125 -7.109375 C -4.664062 -6.296875 -2.328125 -5.429688 0.734375 -4.515625 L 0.015625 -1.40625 C -1.515625 -1.8125 -2.941406 -2.164062 -4.265625 -2.46875 C -5.585938 -2.78125 -7.164062 -3.117188 -9 -3.484375 C -10.84375 -3.859375 -12.851562 -4.253906 -15.03125 -4.671875 C -17.550781 -5.097656 -19.671875 -5.507812 -21.390625 -5.90625 C -23.109375 -6.3125 -24.660156 -6.789062 -26.046875 -7.34375 C -26.492188 -7.726562 -26.660156 -8.179688 -26.546875 -8.703125 C -26.398438 -9.316406 -26.0625 -9.75 -25.53125 -10 C -25.007812 -10.257812 -24.566406 -10.351562 -24.203125 -10.28125 L -17.5625 -8.546875 C -15.039062 -7.960938 -13.132812 -7.648438 -11.84375 -7.609375 C -12.90625 -10.421875 -13.132812 -13.125 -12.53125 -15.71875 C -12.332031 -16.550781 -12.050781 -17.429688 -11.6875 -18.359375 C -10.164062 -20.140625 -8.738281 -21.203125 -7.40625 -21.546875 C -6.726562 -21.691406 -6.023438 -21.722656 -5.296875 -21.640625 C -4.566406 -21.566406 -3.757812 -21.441406 -2.875 -21.265625 C 0.257812 -20.722656 2.582031 -20.398438 4.09375 -20.296875 Z M 4.09375 -20.296875 "/></g></g><g style="fill:#013b74;fill-opacity:1;"><g transform="translate(83.461474, 146.425569)"><path style="stroke:none" d="M 2.640625 -18.625 C 4.460938 -15.1875 4.851562 -11.769531 3.8125 -8.375 C 3.5625 -7.582031 3.273438 -6.90625 2.953125 -6.34375 C 2.628906 -5.78125 2.351562 -5.316406 2.125 -4.953125 C 1.894531 -4.585938 1.601562 -4.203125 1.25 -3.796875 C 0.894531 -3.390625 0.5 -3.050781 0.0625 -2.78125 C -0.957031 -2.1875 -1.925781 -2.148438 -2.84375 -2.671875 C -3.332031 -2.828125 -3.847656 -3.054688 -4.390625 -3.359375 C -4.929688 -3.671875 -5.578125 -4.203125 -6.328125 -4.953125 C -7.085938 -5.703125 -7.800781 -6.691406 -8.46875 -7.921875 C -9.144531 -9.148438 -9.660156 -10.472656 -10.015625 -11.890625 C -10.753906 -14.835938 -10.757812 -17.570312 -10.03125 -20.09375 C -9.800781 -20.832031 -9.53125 -21.472656 -9.21875 -22.015625 C -8.90625 -22.554688 -8.59375 -23.023438 -8.28125 -23.421875 C -7.488281 -24.816406 -6 -25.210938 -3.8125 -24.609375 C -2.4375 -24.234375 -0.648438 -23.460938 1.546875 -22.296875 C 3.742188 -21.128906 5.441406 -20.242188 6.640625 -19.640625 C 7.847656 -19.035156 9.003906 -18.578125 10.109375 -18.265625 L 8.890625 -16.125 C 8.191406 -16.40625 7.570312 -16.660156 7.03125 -16.890625 C 6.5 -17.128906 6 -17.351562 5.53125 -17.5625 C 4.445312 -18.007812 3.484375 -18.363281 2.640625 -18.625 Z M -3.046875 -21.6875 C -4.441406 -22.476562 -5.53125 -22.1875 -6.3125 -20.8125 C -6.4375 -20.644531 -6.546875 -20.476562 -6.640625 -20.3125 C -7.640625 -18.550781 -7.851562 -16.210938 -7.28125 -13.296875 C -7.03125 -11.953125 -6.613281 -10.675781 -6.03125 -9.46875 C -5.207031 -7.71875 -4.25 -6.535156 -3.15625 -5.921875 C -1.726562 -5.097656 -0.414062 -5.4375 0.78125 -6.9375 C 1.976562 -9.144531 2.171875 -11.78125 1.359375 -14.84375 C 0.992188 -16.164062 0.476562 -17.390625 -0.1875 -18.515625 C -1.082031 -20.046875 -2.035156 -21.101562 -3.046875 -21.6875 Z M -3.046875 -21.6875 "/></g></g><g style="fill:#013b74;fill-opacity:1;"><g transform="translate(96.18833, 125.458188)"><path style="stroke:none" d="M 2.4375 -8.0625 L -2.21875 -12.859375 C -2.957031 -13.609375 -3.660156 -14.175781 -4.328125 -14.5625 L -8.90625 -10.015625 L -11 -11.984375 L -6.5625 -16.40625 L -14.140625 -24.03125 C -14.253906 -24.257812 -14.3125 -24.550781 -14.3125 -24.90625 C -14.3125 -25.445312 -14.21875 -25.8125 -14.03125 -26 C -13.84375 -26.1875 -13.660156 -26.328125 -13.484375 -26.421875 C -13.304688 -26.515625 -13.023438 -26.519531 -12.640625 -26.4375 C -11.023438 -25.457031 -8.914062 -23.660156 -6.3125 -21.046875 C -5.664062 -20.390625 -5 -19.773438 -4.3125 -19.203125 C -3.769531 -19.910156 -3.179688 -20.578125 -2.546875 -21.203125 C -2.546875 -21.203125 -2.035156 -21.710938 -1.015625 -22.734375 C -0.640625 -23.109375 -0.3125 -23.472656 -0.03125 -23.828125 L 1.984375 -21.609375 L -2.4375 -17.453125 L 7.84375 -7.40625 C 7.65625 -6.90625 7.429688 -6.523438 7.171875 -6.265625 C 6.191406 -5.285156 4.613281 -5.882812 2.4375 -8.0625 Z M 2.4375 -8.0625 "/></g></g><g style="fill:#013b74;fill-opacity:1;"><g transform="translate(110.33543, 111.262413)"><path style="stroke:none" d="M -10.40625 -21.84375 L -13.09375 -26.5 C -13.3125 -26.882812 -13.34375 -27.257812 -13.1875 -27.625 C -13.039062 -28 -12.773438 -28.289062 -12.390625 -28.5 C -12.003906 -28.71875 -11.59375 -28.8125 -11.15625 -28.78125 C -10.726562 -28.75 -10.453125 -28.53125 -10.328125 -28.125 L -1.40625 -12.46875 C -1 -15.363281 0.125 -18.21875 1.96875 -21.03125 C 3.488281 -23.382812 5.066406 -25.007812 6.703125 -25.90625 C 8.128906 -26.6875 9.492188 -26.828125 10.796875 -26.328125 C 11.785156 -25.921875 12.609375 -25.113281 13.265625 -23.90625 C 13.929688 -22.695312 14.28125 -21.523438 14.3125 -20.390625 C 14.34375 -19.265625 14.21875 -18.09375 13.9375 -16.875 C 13.65625 -15.65625 13.226562 -14.429688 12.65625 -13.203125 C 12.09375 -11.984375 11.484375 -10.820312 10.828125 -9.71875 C 9.554688 -7.632812 8.21875 -5.753906 6.8125 -4.078125 C 6.632812 -4.035156 6.378906 -3.910156 6.046875 -3.703125 C 5.722656 -3.492188 5.316406 -3.253906 4.828125 -2.984375 C 3.515625 -2.265625 2.273438 -1.78125 1.109375 -1.53125 C -0.410156 -3.726562 -2.460938 -7.191406 -5.046875 -11.921875 Z M 2.5 -5.59375 C 2.644531 -5.320312 2.960938 -5.320312 3.453125 -5.59375 C 3.953125 -5.863281 4.515625 -6.296875 5.140625 -6.890625 C 5.765625 -7.492188 6.460938 -8.316406 7.234375 -9.359375 C 8.015625 -10.398438 8.722656 -11.582031 9.359375 -12.90625 C 10.847656 -15.976562 11.570312 -19.023438 11.53125 -22.046875 C 10.445312 -23.253906 9.117188 -23.425781 7.546875 -22.5625 C 6.109375 -21.769531 4.773438 -20.34375 3.546875 -18.28125 C 1.847656 -15.351562 1.066406 -12.453125 1.203125 -9.578125 C 1.234375 -8.429688 1.503906 -7.394531 2.015625 -6.46875 C 2.148438 -6.226562 2.253906 -6.035156 2.328125 -5.890625 C 2.410156 -5.742188 2.46875 -5.644531 2.5 -5.59375 Z M 2.5 -5.59375 "/></g></g><g style="fill:#013b74;fill-opacity:1;"><g transform="translate(133.593437, 98.947743)"><path style="stroke:none" d="M 0.6875 -8.171875 C 0.09375 -11.390625 1.003906 -14.242188 3.421875 -16.734375 C 5.335938 -18.691406 7.820312 -20.128906 10.875 -21.046875 C 11.039062 -21.078125 11.425781 -21.144531 12.03125 -21.25 C 12.632812 -21.363281 13.46875 -21.332031 14.53125 -21.15625 C 16.914062 -20.820312 18.695312 -19.757812 19.875 -17.96875 C 20.351562 -17.257812 20.640625 -16.640625 20.734375 -16.109375 C 20.835938 -15.578125 20.894531 -15.195312 20.90625 -14.96875 C 21.53125 -11.5625 20.726562 -8.632812 18.5 -6.1875 C 16.4375 -3.9375 13.609375 -2.476562 10.015625 -1.8125 C 7.410156 -1.320312 5.335938 -1.554688 3.796875 -2.515625 C 2.253906 -3.472656 1.21875 -5.359375 0.6875 -8.171875 Z M 3.703125 -7.734375 C 4.015625 -6.023438 4.675781 -4.957031 5.6875 -4.53125 C 6.445312 -4.21875 7.632812 -4.210938 9.25 -4.515625 C 10.863281 -4.816406 12.257812 -5.203125 13.4375 -5.671875 C 14.625 -6.140625 15.632812 -6.765625 16.46875 -7.546875 C 18.28125 -9.242188 18.929688 -11.472656 18.421875 -14.234375 C 18.117188 -15.867188 17.429688 -17.117188 16.359375 -17.984375 C 15.191406 -18.921875 13.828125 -19.242188 12.265625 -18.953125 C 11.242188 -18.578125 10.210938 -18.175781 9.171875 -17.75 C 8.140625 -17.332031 7.207031 -16.722656 6.375 -15.921875 C 4.550781 -14.203125 3.660156 -11.472656 3.703125 -7.734375 Z M 3.703125 -7.734375 "/></g></g><g style="fill:#013b74;fill-opacity:1;"><g transform="translate(159.956031, 94.925696)"><path style="stroke:none" d="M 7.78125 -3.25 L 8.515625 -9.890625 C 8.617188 -10.929688 8.609375 -11.835938 8.484375 -12.609375 L 2.0625 -13.234375 L 2.265625 -16.109375 L 8.484375 -15.484375 L 9.546875 -26.1875 C 9.648438 -26.425781 9.84375 -26.65625 10.125 -26.875 C 10.539062 -27.226562 10.878906 -27.390625 11.140625 -27.359375 C 11.398438 -27.335938 11.625 -27.285156 11.8125 -27.203125 C 12 -27.128906 12.1875 -26.914062 12.375 -26.5625 C 12.644531 -24.695312 12.597656 -21.929688 12.234375 -18.265625 C 12.140625 -17.347656 12.09375 -16.441406 12.09375 -15.546875 C 12.976562 -15.566406 13.863281 -15.535156 14.75 -15.453125 C 14.75 -15.453125 15.46875 -15.378906 16.90625 -15.234375 C 17.4375 -15.179688 17.925781 -15.160156 18.375 -15.171875 L 17.953125 -12.203125 L 11.921875 -12.96875 L 10.703125 1.359375 C 10.191406 1.523438 9.753906 1.59375 9.390625 1.5625 C 8.015625 1.425781 7.476562 -0.175781 7.78125 -3.25 Z M 7.78125 -3.25 "/></g></g><g style="fill:#013b74;fill-opacity:1;"><g transform="translate(180.183245, 97.321803)"><path style="stroke:none" d=""/></g></g></g></svg>