<svg xmlns="http://www.w3.org/2000/svg" xmlns:xlink="http://www.w3.org/1999/xlink" width="162" zoomAndPan="magnify" viewBox="0 0 121.5 37.5" height="50" preserveAspectRatio="xMidYMid meet" version="1.0"><defs><g/><clipPath id="0c42fed44a"><path d="M 11.730469 0.828125 L 47.910156 0.828125 L 47.910156 37.007812 L 11.730469 37.007812 Z M 11.730469 0.828125 " clip-rule="nonzero"/></clipPath><clipPath id="68c535461d"><path d="M 29.820312 0.828125 C 19.828125 0.828125 11.730469 8.925781 11.730469 18.917969 C 11.730469 28.90625 19.828125 37.007812 29.820312 37.007812 C 39.8125 37.007812 47.910156 28.90625 47.910156 18.917969 C 47.910156 8.925781 39.8125 0.828125 29.820312 0.828125 Z M 29.820312 0.828125 " clip-rule="nonzero"/></clipPath><clipPath id="cd0e366894"><path d="M 10.71875 1 L 48.789062 1 L 48.789062 37 L 10.71875 37 Z M 10.71875 1 " clip-rule="nonzero"/></clipPath></defs><g clip-path="url(#0c42fed44a)"><g clip-path="url(#68c535461d)"><path fill="#3c6ca8" d="M 11.730469 0.828125 L 47.910156 0.828125 L 47.910156 37.007812 L 11.730469 37.007812 Z M 11.730469 0.828125 " fill-opacity="1" fill-rule="nonzero"/></g></g><path fill="#3c6ca8" d="M 38.171875 10.03125 C 37.097656 10.234375 35.996094 10.027344 34.914062 10.183594 C 33.949219 10.226562 33.027344 9.855469 32.0625 9.8125 C 30.800781 9.847656 29.257812 11.238281 28.152344 11.882812 C 27.089844 12.589844 25.800781 13.746094 24.472656 13.03125 C 23.25 12.445312 22.257812 11.519531 21.261719 10.625 C 20.273438 9.96875 19.066406 10.320312 17.964844 10.339844 C 16.3125 10.378906 14.5625 10.75 12.984375 10.105469 C 11.441406 9.101562 13.519531 7.449219 14.355469 6.714844 C 15.753906 5.347656 17.410156 4.304688 19.042969 3.242188 C 20.226562 2.503906 21.390625 1.742188 22.625 1.085938 C 22.945312 0.972656 23.4375 0.449219 23.734375 0.753906 C 25.582031 0.371094 27.480469 0.527344 29.359375 0.4375 C 30.910156 0.371094 32.453125 0.191406 34.003906 0.140625 C 36.097656 0.0117188 38.179688 0.367188 40.257812 0.605469 C 41.765625 0.886719 43.332031 0.851562 44.824219 1.207031 C 47.242188 2.328125 43.984375 5.035156 42.996094 6.09375 C 41.695312 7.378906 39.933594 9.535156 38.171875 10.03125 Z M 33.589844 22.710938 C 32.625 22.242188 31.722656 21.589844 30.644531 21.4375 C 30.195312 21.371094 29.746094 21.34375 29.296875 21.277344 C 29.195312 21.265625 29.109375 21.296875 29.035156 21.355469 C 26.382812 22.023438 25.757812 25.625 25.257812 27.925781 C 25.042969 29.261719 25.113281 30.679688 25.652344 31.933594 C 26.105469 33.117188 27.503906 33.417969 28.640625 33.417969 C 29.914062 33.535156 31.210938 33.199219 32.386719 32.726562 C 33.140625 32.34375 33.765625 31.75 34.382812 31.183594 C 35.511719 30.109375 36.625 28.652344 36.539062 27.015625 C 36.636719 25.074219 35.214844 23.558594 33.589844 22.710938 Z M 23.726562 18.105469 C 22.738281 17.429688 21.429688 17.976562 20.460938 18.449219 C 18.273438 19.996094 16.726562 23.175781 16.957031 25.851562 C 17.019531 26.40625 17.414062 26.820312 17.800781 27.191406 C 18.609375 28.121094 19.71875 28.808594 20.976562 28.824219 C 21.875 28.917969 22.929688 28.921875 23.664062 28.324219 C 25.167969 26.675781 25.242188 24.222656 25.242188 22.101562 C 25.148438 20.6875 24.773438 19.121094 23.726562 18.105469 Z M 45.070312 11.644531 C 44.535156 11.335938 42.757812 12.992188 42.242188 13.339844 C 41.695312 13.71875 41.121094 14.234375 41.417969 14.964844 C 41.511719 15.195312 41.628906 15.28125 41.761719 15.28125 C 41.976562 15.28125 42.21875 15.050781 42.441406 14.898438 C 43.164062 14.398438 43.835938 13.824219 44.585938 13.367188 C 45.320312 13.714844 45.640625 11.945312 45.070312 11.644531 Z M 41.820312 16.289062 C 41.128906 16.003906 40.824219 17.59375 41.371094 17.890625 C 41.453125 17.929688 41.535156 17.945312 41.621094 17.945312 C 42.449219 17.945312 43.390625 16.351562 44.222656 16.164062 C 44.75 15.96875 44.785156 15.132812 44.503906 14.722656 C 43.878906 14.035156 42.359375 15.929688 41.820312 16.289062 Z M 43.160156 18.414062 C 43.035156 18.335938 42.890625 18.355469 42.777344 18.445312 C 42.339844 18.78125 41.90625 19.121094 41.480469 19.464844 C 41.394531 19.457031 41.3125 19.488281 41.246094 19.539062 C 40.964844 19.753906 40.863281 20.109375 40.886719 20.453125 C 40.917969 20.890625 41.09375 21.117188 41.351562 21.117188 C 41.507812 21.117188 41.691406 21.035156 41.890625 20.867188 C 42.316406 20.554688 42.742188 20.238281 43.160156 19.914062 C 43.566406 19.566406 43.589844 18.742188 43.160156 18.414062 Z M 43.160156 18.414062 " fill-opacity="1" fill-rule="nonzero"/><g clip-path="url(#cd0e366894)"><path fill="#fffcf6" d="M 49.472656 2.457031 C 49.339844 2.339844 49.300781 2.121094 49.097656 2.085938 C 48.25 1.914062 47.375 1.941406 46.511719 1.957031 C 46.363281 1.96875 46.179688 1.960938 45.992188 1.953125 C 45.890625 1.949219 45.785156 1.945312 45.683594 1.941406 C 45.644531 1.917969 45.597656 1.898438 45.546875 1.890625 C 44.355469 1.941406 43.179688 1.707031 42 1.601562 C 40.777344 1.417969 39.542969 1.421875 38.3125 1.425781 C 37.355469 1.425781 36.398438 1.429688 35.445312 1.347656 C 33.679688 1.175781 31.902344 0.949219 30.125 1.007812 C 28.28125 1.191406 26.410156 1.320312 24.585938 1.585938 C 23.042969 2.363281 21.445312 3.019531 19.929688 3.851562 C 18.214844 4.804688 16.386719 5.539062 14.761719 6.65625 C 14.316406 6.941406 13.53125 7.367188 13.25 7.890625 C 13.25 7.890625 13.25 7.894531 13.25 7.894531 C 12.945312 8.09375 12.636719 8.285156 12.335938 8.484375 C 11.699219 8.964844 10.726562 9.375 10.71875 10.292969 C 10.714844 10.535156 10.789062 10.765625 11.011719 10.882812 C 11.472656 11.070312 11.953125 11.171875 12.445312 11.226562 C 12.40625 11.441406 12.429688 11.707031 12.542969 11.984375 C 12.542969 11.984375 12.539062 11.980469 12.535156 11.972656 C 13.09375 15.832031 13.195312 19.828125 13.972656 23.695312 C 14.226562 25.40625 14.441406 27.125 14.652344 28.84375 C 14.792969 29.648438 14.777344 30.5 15.121094 31.253906 C 15.992188 32.742188 17.492188 33.710938 18.863281 34.699219 C 20.59375 36.117188 22.710938 36.976562 24.957031 36.976562 C 25.023438 36.976562 25.09375 36.976562 25.160156 36.976562 C 26.84375 36.976562 28.527344 36.847656 30.195312 36.628906 C 31.832031 36.46875 33.484375 36.507812 35.117188 36.320312 C 37.882812 35.988281 40.832031 34.585938 42.597656 32.398438 C 43.3125 31.53125 44.109375 30.652344 44.421875 29.535156 C 44.457031 29.25 44.660156 28.804688 44.746094 28.402344 C 45.246094 28.070312 45.03125 26.875 45.15625 26.347656 C 45.234375 25.660156 45.316406 24.980469 45.398438 24.296875 C 45.882812 20.300781 46.054688 16.261719 46.699219 12.289062 C 46.890625 11.449219 47.011719 10.597656 47.101562 9.742188 C 47.207031 8.769531 47.214844 7.640625 47.238281 6.621094 C 47.21875 6.292969 47.320312 5.945312 47.316406 5.613281 C 48.945312 4.449219 50.203125 3.234375 49.472656 2.457031 Z M 13.828125 8.742188 C 14.128906 8.597656 14.457031 8.316406 14.695312 8.214844 C 15.550781 7.667969 16.414062 7.128906 17.304688 6.640625 C 18.710938 5.960938 20.0625 5.175781 21.445312 4.457031 C 22.261719 3.914062 23.128906 3.46875 23.984375 3 C 24.328125 2.792969 24.65625 2.539062 25.078125 2.566406 C 26.519531 2.492188 27.960938 2.605469 29.402344 2.726562 C 30.976562 2.851562 32.550781 2.980469 34.128906 2.859375 C 35.777344 2.792969 37.410156 2.976562 39.027344 3.265625 C 40.808594 3.5625 42.609375 3.632812 44.402344 3.417969 C 44.460938 3.402344 44.515625 3.394531 44.578125 3.382812 C 44.691406 3.492188 44.867188 3.542969 45.117188 3.480469 C 46.101562 3.519531 47.085938 3.511719 48.074219 3.5625 C 46.195312 4.984375 44.269531 6.34375 42.410156 7.796875 C 41.480469 8.574219 40.367188 9.164062 39.558594 10.070312 C 38.371094 10.011719 37.171875 9.933594 35.976562 9.984375 C 34.484375 9.980469 33.007812 10.1875 31.53125 10.359375 C 31.320312 10.398438 31.113281 10.367188 30.910156 10.339844 C 30.710938 10.3125 30.515625 10.285156 30.324219 10.316406 C 28.5625 11.207031 26.714844 12.007812 24.828125 12.574219 C 23.769531 12.46875 22.78125 11.863281 22.074219 11.082031 C 21.832031 10.792969 21.777344 10.394531 21.5 10.101562 C 20.550781 10.007812 19.5625 10.046875 18.609375 9.882812 C 18.09375 9.796875 17.578125 9.753906 17.054688 9.738281 C 16.550781 9.726562 16.046875 9.742188 15.539062 9.757812 C 14.625 9.785156 13.707031 9.8125 12.796875 9.675781 C 13.175781 9.40625 13.613281 9.15625 13.828125 8.742188 Z M 45.941406 10.824219 C 45.832031 13.4375 45.5625 16.039062 45.074219 18.613281 C 44.859375 20.546875 44.652344 22.484375 44.386719 24.410156 C 44.359375 24.945312 43.9375 27.136719 44.191406 28.0625 C 44.140625 28.269531 44.113281 28.496094 44.050781 28.613281 C 43.84375 29.429688 43.285156 30.09375 42.632812 30.605469 C 42.105469 31.140625 41.617188 31.726562 40.964844 32.125 C 39.523438 32.96875 38.078125 33.835938 36.511719 34.429688 C 35.601562 34.734375 34.65625 34.894531 33.722656 35.109375 C 29.964844 36.175781 27.347656 35.5 23.664062 34.835938 C 20.289062 34.414062 18.09375 32.863281 16.117188 30.144531 C 15.71875 29.003906 15.621094 27.738281 15.242188 26.574219 C 14.136719 21.894531 14.210938 16.996094 13.605469 12.21875 C 13.570312 11.816406 13.503906 11.503906 13.417969 11.273438 C 14.125 11.273438 14.835938 11.214844 15.527344 11.203125 C 17.367188 11.1875 19.207031 11.214844 21.046875 11.152344 C 21.628906 12.53125 22.882812 13.722656 24.300781 14.230469 C 24.359375 14.234375 24.421875 14.234375 24.484375 14.234375 C 26.402344 14.234375 28.644531 12.703125 30.261719 11.785156 C 31.867188 11.886719 33.484375 11.867188 35.09375 11.957031 C 36.71875 11.96875 38.320312 11.644531 39.929688 11.472656 C 40.246094 11.429688 40.492188 10.941406 40.484375 10.558594 C 40.515625 10.527344 40.542969 10.496094 40.566406 10.472656 C 41.21875 9.78125 42.042969 9.1875 42.773438 8.578125 C 43.234375 8.175781 44.695312 7.347656 46.15625 6.398438 C 45.992188 7.863281 46.03125 9.355469 45.941406 10.824219 Z M 40.222656 13.941406 C 40.167969 16.875 39.910156 19.800781 39.539062 22.710938 C 39.300781 24.351562 39.03125 25.988281 38.84375 27.636719 C 38.695312 28.21875 38.945312 30.902344 38.171875 30.902344 C 38.148438 30.902344 38.117188 30.898438 38.089844 30.890625 C 37.566406 30.621094 37.777344 29.917969 37.878906 29.460938 C 38.078125 28.261719 38.222656 27.050781 38.371094 25.84375 C 38.640625 22.234375 39.105469 18.695312 39.207031 15.113281 C 39.296875 14.582031 39.109375 13.398438 39.796875 13.285156 C 40.09375 13.296875 40.21875 13.699219 40.222656 13.941406 Z M 28.15625 25.316406 C 28.15625 25.707031 27.972656 26.09375 27.605469 26.09375 C 27.5625 26.09375 27.515625 26.089844 27.464844 26.074219 C 26.835938 25.964844 26.910156 24.578125 27.535156 24.539062 C 27.949219 24.523438 28.152344 24.917969 28.15625 25.316406 Z M 29.488281 27.519531 C 29.578125 27.679688 29.605469 27.875 29.597656 28.058594 C 29.582031 28.335938 29.449219 28.792969 29.101562 28.792969 C 28.960938 28.792969 28.851562 28.667969 28.789062 28.558594 C 28.699219 28.394531 28.671875 28.199219 28.679688 28.015625 C 28.695312 27.738281 28.828125 27.28125 29.175781 27.28125 C 29.316406 27.28125 29.425781 27.40625 29.488281 27.519531 Z M 31.515625 23.742188 C 31.601562 23.902344 31.628906 24.097656 31.621094 24.28125 C 31.609375 24.554688 31.476562 25.011719 31.128906 25.011719 C 30.988281 25.011719 30.878906 24.886719 30.816406 24.777344 C 30.726562 24.613281 30.699219 24.417969 30.707031 24.238281 C 30.722656 23.960938 30.855469 23.503906 31.199219 23.503906 C 31.34375 23.503906 31.453125 23.628906 31.515625 23.742188 Z M 29.507812 23.359375 C 29.597656 23.519531 29.625 23.714844 29.617188 23.898438 C 29.601562 24.171875 29.46875 24.628906 29.121094 24.628906 C 28.980469 24.628906 28.871094 24.503906 28.808594 24.394531 C 28.722656 24.230469 28.691406 24.035156 28.703125 23.855469 C 28.714844 23.578125 28.847656 23.121094 29.195312 23.121094 C 29.335938 23.121094 29.445312 23.246094 29.507812 23.359375 Z M 27.554688 29.472656 C 27.496094 29.710938 27.234375 29.902344 26.988281 29.902344 C 26.871094 29.902344 26.757812 29.855469 26.675781 29.746094 C 26.351562 29.289062 26.496094 28.285156 27.199219 28.351562 C 27.664062 28.4375 27.679688 29.113281 27.554688 29.472656 Z M 34.292969 19.625 C 34.507812 19.082031 34.953125 17.945312 34.171875 17.6875 C 33.425781 17.824219 32.476562 19.023438 32.035156 19.632812 C 31.917969 18.710938 31.625 17.804688 31.171875 16.992188 C 30.480469 15.878906 29.832031 17.085938 29.6875 17.851562 C 29.570312 18.628906 29.636719 19.417969 29.683594 20.195312 C 29.679688 20.265625 29.675781 20.351562 29.675781 20.449219 C 28.628906 20.296875 27.5 20.277344 26.554688 20.597656 C 26.398438 19.964844 26.027344 19.191406 25.964844 18.882812 C 25.484375 17.746094 25.03125 16.417969 23.921875 15.746094 C 23.070312 15.210938 22.179688 15.394531 21.332031 15.808594 C 21.308594 15.722656 21.277344 15.644531 21.234375 15.585938 C 20.984375 14.527344 20.574219 13.496094 19.765625 12.742188 C 19.433594 12.394531 18.753906 12.121094 18.402344 12.578125 C 17.851562 13.632812 18.34375 14.992188 18.640625 16.070312 C 17.921875 15.8125 17.144531 15.75 16.390625 15.832031 C 15.796875 15.914062 15.738281 16.660156 15.898438 17.121094 C 16.164062 17.964844 17.074219 18.226562 17.78125 18.636719 C 17.039062 19.582031 16.410156 20.714844 16.589844 21.605469 C 16.472656 21.714844 16.394531 21.925781 16.394531 22.277344 C 16.484375 23.625 17.800781 25.019531 18.625 26.054688 C 20.136719 27.625 21.296875 28.234375 23.476562 28.410156 C 23.515625 28.417969 23.554688 28.421875 23.59375 28.421875 C 23.609375 28.421875 23.625 28.421875 23.640625 28.417969 C 23.644531 28.519531 23.648438 28.621094 23.65625 28.722656 C 23.691406 29.644531 23.832031 30.558594 23.941406 31.472656 C 24.042969 32.265625 24.140625 33.273438 24.921875 33.691406 C 24.972656 33.71875 25.027344 33.730469 25.078125 33.730469 C 25.207031 33.730469 25.328125 33.648438 25.402344 33.527344 C 27.148438 33.851562 31.054688 32.3125 32.492188 31.25 C 33.839844 30.296875 35.035156 29.039062 35.753906 27.542969 C 36.382812 26.070312 36.023438 24.535156 35.15625 23.273438 C 35.945312 22.476562 36.757812 21.636719 37.085938 20.542969 C 37.570312 18.15625 35.605469 18.691406 34.292969 19.625 Z M 33.582031 19.390625 C 33.464844 19.753906 32.964844 20.613281 32.84375 21.269531 C 32.695312 21.203125 32.542969 21.144531 32.386719 21.089844 C 32.742188 20.492188 33.101562 19.890625 33.582031 19.390625 Z M 30.625 18.449219 C 30.921875 19.042969 31.113281 19.679688 31.175781 20.347656 C 31.203125 20.472656 31.207031 20.613281 31.207031 20.761719 C 31.027344 20.714844 30.84375 20.671875 30.652344 20.628906 C 30.703125 19.917969 30.539062 18.949219 30.625 18.449219 Z M 20.511719 16.277344 C 20.296875 16.410156 20.089844 16.550781 19.886719 16.6875 C 19.742188 16.28125 19.496094 15.882812 19.40625 15.472656 C 19.273438 14.964844 19.175781 14.449219 19.171875 13.925781 C 20.058594 14.371094 20.078125 15.484375 20.511719 16.277344 Z M 16.832031 17.046875 C 17.519531 17.046875 18.148438 17.285156 18.773438 17.539062 C 18.636719 17.671875 18.496094 17.816406 18.351562 17.972656 C 18.058594 17.5 17.277344 17.371094 16.832031 17.046875 Z M 23.257812 26.949219 C 22.609375 26.8125 21.941406 26.761719 21.304688 26.578125 C 19.566406 25.773438 18.445312 24.113281 17.410156 22.570312 C 17.421875 22.480469 17.425781 22.394531 17.417969 22.3125 C 17.546875 22.171875 17.597656 21.921875 17.5625 21.734375 C 17.722656 21.160156 18.03125 20.636719 18.382812 20.164062 C 19.382812 18.828125 20.671875 17.703125 22.226562 17.066406 C 23.597656 16.484375 24.519531 17.382812 25.070312 18.570312 C 25.449219 19.3125 25.65625 20.121094 25.867188 20.921875 C 25.632812 21.066406 25.417969 21.238281 25.230469 21.449219 C 23.996094 23.097656 23.644531 25.03125 23.613281 27.007812 C 23.511719 26.957031 23.390625 26.933594 23.257812 26.949219 Z M 33.476562 28.242188 C 31.417969 29.921875 29.042969 32.101562 26.375 32.609375 C 26.082031 32.625 25.773438 32.644531 25.496094 32.539062 C 25.425781 32.339844 25.230469 32.25 25.113281 32.089844 C 24.867188 31.53125 24.917969 30.886719 24.816406 30.292969 C 24.542969 28.238281 24.324219 26.09375 24.933594 24.078125 C 25.226562 23.367188 25.394531 22.515625 26.007812 22.007812 C 26.550781 21.675781 27.117188 21.546875 27.683594 21.546875 C 29 21.546875 30.34375 22.234375 31.546875 22.71875 C 32.570312 23.085938 33.582031 23.566406 34.289062 24.421875 C 34.640625 24.863281 35.082031 25.28125 35.136719 25.875 C 35.21875 26.929688 34.097656 27.542969 33.476562 28.242188 Z M 34.34375 22.261719 C 34.164062 22.082031 33.96875 21.921875 33.757812 21.777344 C 33.949219 21.613281 34.132812 21.433594 34.347656 21.316406 C 34.695312 21.113281 35.070312 20.972656 35.453125 20.855469 C 35.1875 21.332031 34.660156 21.773438 34.34375 22.261719 Z M 20.628906 7.5 C 21.335938 6.15625 22.941406 4.972656 24.257812 4.246094 C 25.28125 3.730469 26.457031 3.78125 27.574219 3.753906 C 28.125 3.726562 28.675781 3.726562 29.222656 3.78125 C 30.746094 3.863281 32.25 4.1875 33.785156 4.121094 C 34.050781 4.132812 34.371094 4.117188 34.707031 4.101562 C 35.617188 4.058594 36.652344 4.015625 37.195312 4.558594 C 37.953125 5.792969 36.519531 6.929688 35.644531 7.628906 C 35.203125 7.976562 34.355469 8.8125 33.757812 8.8125 C 33.730469 8.8125 33.703125 8.8125 33.675781 8.808594 C 33.117188 8.449219 33.46875 7.523438 33.90625 7.199219 C 34.671875 6.769531 35.277344 6.121094 35.988281 5.617188 C 35.039062 5.230469 33.996094 5.238281 32.988281 5.1875 C 31.601562 5.183594 30.332031 5.121094 28.972656 5.1875 C 26.230469 5.1875 24.742188 4.902344 22.550781 6.875 C 22.109375 7.273438 21.644531 7.660156 21.296875 8.148438 C 20.75 8.777344 20.34375 8.074219 20.628906 7.5 Z M 20.992188 21.675781 C 21.027344 21.929688 20.984375 22.410156 20.632812 22.410156 C 20.484375 22.410156 20.355469 22.300781 20.269531 22.191406 C 20.152344 22.039062 20.082031 21.847656 20.054688 21.660156 C 20.015625 21.40625 20.0625 20.925781 20.414062 20.925781 C 20.5625 20.925781 20.6875 21.035156 20.773438 21.144531 C 20.894531 21.296875 20.964844 21.488281 20.992188 21.675781 Z M 22.867188 20.191406 C 22.828125 19.941406 22.875 19.460938 23.226562 19.460938 C 23.371094 19.460938 23.5 19.570312 23.582031 19.679688 C 23.703125 19.832031 23.773438 20.023438 23.800781 20.210938 C 23.839844 20.464844 23.792969 20.941406 23.441406 20.941406 C 23.296875 20.941406 23.167969 20.832031 23.082031 20.722656 C 22.964844 20.574219 22.894531 20.382812 22.867188 20.191406 Z M 23.789062 22.773438 C 23.550781 22.96875 23.34375 23.089844 23.167969 23.089844 C 22.964844 23.089844 22.796875 22.9375 22.652344 22.574219 C 22.546875 22.269531 22.511719 21.820312 22.8125 21.617188 C 23.046875 21.496094 23.335938 21.242188 23.589844 21.453125 C 23.945312 21.742188 24.113281 22.410156 23.789062 22.773438 Z M 23.789062 22.773438 " fill-opacity="1" fill-rule="nonzero"/></g><g fill="#3c6ca8" fill-opacity="1"><g transform="translate(52.604594, 16.643125)"><g><path d="M 7.296875 -3.28125 C 7.460938 -2.632812 7.410156 -2.054688 7.140625 -1.546875 C 6.878906 -1.046875 6.453125 -0.691406 5.859375 -0.484375 C 5.179688 -0.253906 4.367188 -0.117188 3.421875 -0.078125 C 3.003906 -0.0546875 2.628906 -0.148438 2.296875 -0.359375 C 1.960938 -0.578125 1.695312 -0.796875 1.5 -1.015625 C 1.28125 -1.265625 1.144531 -1.53125 1.09375 -1.8125 C 1.039062 -2.09375 1.082031 -2.347656 1.21875 -2.578125 C 1.4375 -2.953125 1.796875 -3.140625 2.296875 -3.140625 C 2.429688 -3.140625 2.566406 -3.128906 2.703125 -3.109375 C 2.765625 -3.085938 2.828125 -3.066406 2.890625 -3.046875 C 2.953125 -3.035156 3.007812 -3.019531 3.0625 -3 C 3.300781 -2.9375 3.546875 -2.878906 3.796875 -2.828125 C 4.054688 -2.785156 4.328125 -2.804688 4.609375 -2.890625 L 5.0625 -3.015625 L 5 -3.171875 C 4.875 -3.453125 4.703125 -3.65625 4.484375 -3.78125 C 4.273438 -3.914062 4.050781 -4.019531 3.8125 -4.09375 C 2.875 -4.375 2.03125 -4.894531 1.28125 -5.65625 C 0.726562 -6.21875 0.46875 -6.847656 0.5 -7.546875 C 0.539062 -8.242188 0.851562 -8.832031 1.4375 -9.3125 C 2.5625 -10.238281 3.835938 -10.53125 5.265625 -10.1875 C 5.898438 -10.039062 6.375 -9.722656 6.6875 -9.234375 C 6.800781 -9.023438 6.867188 -8.796875 6.890625 -8.546875 C 6.890625 -8.472656 6.878906 -8.390625 6.859375 -8.296875 C 6.835938 -8.210938 6.796875 -8.144531 6.734375 -8.09375 C 6.628906 -8.007812 6.460938 -8.015625 6.234375 -8.109375 C 5.960938 -8.222656 5.628906 -8.328125 5.234375 -8.421875 C 4.847656 -8.515625 4.4375 -8.507812 4 -8.40625 C 3.789062 -8.363281 3.585938 -8.296875 3.390625 -8.203125 C 3.203125 -8.117188 3.023438 -8.023438 2.859375 -7.921875 C 2.671875 -7.804688 2.578125 -7.664062 2.578125 -7.5 C 2.578125 -7.320312 2.664062 -7.175781 2.84375 -7.0625 L 3.140625 -6.890625 C 3.390625 -6.742188 3.640625 -6.597656 3.890625 -6.453125 C 4.140625 -6.316406 4.394531 -6.191406 4.65625 -6.078125 C 6.101562 -5.503906 6.984375 -4.570312 7.296875 -3.28125 Z M 7.296875 -3.28125 "/></g></g></g><g fill="#3c6ca8" fill-opacity="1"><g transform="translate(60.495267, 16.643125)"><g><path d="M 8.515625 -7.875 C 8.640625 -7.125 8.570312 -6.421875 8.3125 -5.765625 C 8.050781 -5.117188 7.628906 -4.570312 7.046875 -4.125 C 6.460938 -3.6875 5.765625 -3.398438 4.953125 -3.265625 C 4.773438 -3.234375 4.578125 -3.21875 4.359375 -3.21875 C 4.140625 -3.21875 3.921875 -3.222656 3.703125 -3.234375 C 3.585938 -3.242188 3.472656 -3.25 3.359375 -3.25 C 3.253906 -3.257812 3.144531 -3.265625 3.03125 -3.265625 L 2.890625 -3.265625 L 2.90625 -2.90625 C 2.90625 -2.75 2.910156 -2.554688 2.921875 -2.328125 C 2.929688 -2.097656 2.9375 -1.910156 2.9375 -1.765625 L 2.9375 -1.640625 C 2.925781 -1.492188 2.914062 -1.34375 2.90625 -1.1875 C 2.894531 -1.03125 2.859375 -0.890625 2.796875 -0.765625 C 2.691406 -0.492188 2.554688 -0.304688 2.390625 -0.203125 C 2.222656 -0.0976562 2.070312 -0.0351562 1.9375 -0.015625 C 1.75 0.015625 1.578125 0.00390625 1.421875 -0.046875 C 1.273438 -0.109375 1.164062 -0.179688 1.09375 -0.265625 L 1.046875 -0.28125 C 0.898438 -0.375 0.8125 -0.503906 0.78125 -0.671875 C 0.757812 -0.835938 0.753906 -1.03125 0.765625 -1.25 C 0.773438 -1.382812 0.78125 -1.519531 0.78125 -1.65625 C 0.789062 -1.789062 0.800781 -1.929688 0.8125 -2.078125 C 0.832031 -2.347656 0.847656 -2.617188 0.859375 -2.890625 C 0.878906 -3.171875 0.890625 -3.453125 0.890625 -3.734375 C 0.890625 -4.210938 0.867188 -4.695312 0.828125 -5.1875 C 0.785156 -5.675781 0.738281 -6.160156 0.6875 -6.640625 C 0.644531 -7.085938 0.601562 -7.535156 0.5625 -7.984375 C 0.53125 -8.441406 0.507812 -8.894531 0.5 -9.34375 C 0.5 -9.46875 0.5 -9.582031 0.5 -9.6875 C 0.507812 -9.800781 0.523438 -9.914062 0.546875 -10.03125 C 0.617188 -10.394531 0.804688 -10.625 1.109375 -10.71875 C 1.191406 -10.738281 1.273438 -10.75 1.359375 -10.75 C 1.585938 -10.75 1.796875 -10.660156 1.984375 -10.484375 C 2.015625 -10.460938 2.046875 -10.421875 2.078125 -10.359375 C 2.109375 -10.316406 2.132812 -10.285156 2.15625 -10.265625 L 2.25 -10.140625 L 2.359375 -10.21875 C 2.992188 -10.664062 3.71875 -10.925781 4.53125 -11 C 5.238281 -11.050781 5.867188 -10.957031 6.421875 -10.71875 C 6.984375 -10.488281 7.445312 -10.128906 7.8125 -9.640625 C 8.175781 -9.160156 8.410156 -8.570312 8.515625 -7.875 Z M 5.515625 -6.1875 C 6.078125 -6.726562 6.238281 -7.320312 6 -7.96875 C 5.894531 -8.257812 5.71875 -8.460938 5.46875 -8.578125 C 5.269531 -8.660156 5.035156 -8.679688 4.765625 -8.640625 C 4.492188 -8.609375 4.238281 -8.523438 4 -8.390625 C 3.757812 -8.253906 3.578125 -8.085938 3.453125 -7.890625 C 3.054688 -7.242188 2.859375 -6.46875 2.859375 -5.5625 L 2.859375 -5.4375 L 3 -5.421875 C 3.101562 -5.421875 3.203125 -5.421875 3.296875 -5.421875 C 4.234375 -5.421875 4.972656 -5.675781 5.515625 -6.1875 Z M 5.515625 -6.1875 "/></g></g></g><g fill="#3c6ca8" fill-opacity="1"><g transform="translate(69.583145, 16.643125)"><g><path d="M 3.234375 -8.078125 C 3.296875 -7.109375 3.289062 -6.140625 3.21875 -5.171875 C 3.144531 -4.210938 3.050781 -3.265625 2.9375 -2.328125 L 2.859375 -1.515625 C 2.828125 -1.316406 2.753906 -1.109375 2.640625 -0.890625 C 2.421875 -0.523438 2.128906 -0.34375 1.765625 -0.34375 C 1.429688 -0.34375 1.171875 -0.515625 0.984375 -0.859375 C 0.742188 -1.285156 0.609375 -1.757812 0.578125 -2.28125 C 0.554688 -2.632812 0.546875 -2.992188 0.546875 -3.359375 C 0.546875 -3.722656 0.550781 -4.082031 0.5625 -4.4375 C 0.5625 -4.582031 0.5625 -4.726562 0.5625 -4.875 C 0.5625 -5.03125 0.5625 -5.179688 0.5625 -5.328125 L 0.5625 -5.484375 L 0.5 -5.484375 C 0.507812 -5.585938 0.515625 -5.695312 0.515625 -5.8125 C 0.523438 -5.925781 0.53125 -6.039062 0.53125 -6.15625 C 0.550781 -6.488281 0.566406 -6.820312 0.578125 -7.15625 C 0.597656 -7.5 0.625 -7.84375 0.65625 -8.1875 C 0.6875 -8.613281 0.765625 -9.007812 0.890625 -9.375 C 0.972656 -9.625 1.113281 -9.816406 1.3125 -9.953125 C 1.507812 -10.097656 1.726562 -10.164062 1.96875 -10.15625 C 2.507812 -10.125 2.851562 -9.859375 3 -9.359375 C 3.125 -8.992188 3.203125 -8.566406 3.234375 -8.078125 Z M 3.234375 -8.078125 "/></g></g></g><g fill="#3c6ca8" fill-opacity="1"><g transform="translate(73.378832, 16.643125)"><g><path d="M 6.046875 -2.484375 C 6.203125 -2.484375 6.375 -2.453125 6.5625 -2.390625 C 6.757812 -2.335938 6.910156 -2.191406 7.015625 -1.953125 C 7.191406 -1.597656 7.117188 -1.242188 6.796875 -0.890625 C 6.585938 -0.671875 6.347656 -0.492188 6.078125 -0.359375 C 4.921875 0.203125 3.648438 0.347656 2.265625 0.078125 C 1.460938 -0.078125 0.9375 -0.601562 0.6875 -1.5 C 0.539062 -2.0625 0.476562 -2.625 0.5 -3.1875 C 0.53125 -3.757812 0.582031 -4.296875 0.65625 -4.796875 C 0.71875 -5.210938 0.785156 -5.628906 0.859375 -6.046875 C 0.929688 -6.460938 1.003906 -6.875 1.078125 -7.28125 C 1.109375 -7.476562 1.140625 -7.675781 1.171875 -7.875 C 1.203125 -8.070312 1.238281 -8.269531 1.28125 -8.46875 L 1.296875 -8.515625 C 1.304688 -8.566406 1.3125 -8.625 1.3125 -8.6875 C 1.320312 -8.75 1.320312 -8.8125 1.3125 -8.875 C 1.207031 -9.375 1.421875 -9.769531 1.953125 -10.0625 C 2.054688 -10.113281 2.160156 -10.160156 2.265625 -10.203125 C 2.367188 -10.253906 2.472656 -10.285156 2.578125 -10.296875 L 3.171875 -10.390625 C 3.585938 -10.441406 4.007812 -10.492188 4.4375 -10.546875 C 4.875 -10.609375 5.304688 -10.648438 5.734375 -10.671875 C 5.765625 -10.671875 5.800781 -10.671875 5.84375 -10.671875 C 6.269531 -10.671875 6.613281 -10.546875 6.875 -10.296875 C 7.113281 -10.085938 7.234375 -9.832031 7.234375 -9.53125 C 7.242188 -9.1875 7.113281 -8.898438 6.84375 -8.671875 C 6.582031 -8.441406 6.234375 -8.3125 5.796875 -8.28125 C 5.515625 -8.269531 5.234375 -8.265625 4.953125 -8.265625 C 4.671875 -8.273438 4.390625 -8.289062 4.109375 -8.3125 L 3.75 -8.328125 C 3.582031 -8.335938 3.445312 -8.335938 3.34375 -8.328125 C 3.25 -8.328125 3.171875 -8.296875 3.109375 -8.234375 C 3.035156 -8.179688 2.992188 -8.101562 2.984375 -8 C 2.984375 -7.90625 2.984375 -7.769531 2.984375 -7.59375 C 2.984375 -7.414062 2.984375 -7.238281 2.984375 -7.0625 C 2.984375 -6.894531 2.984375 -6.726562 2.984375 -6.5625 L 2.984375 -5.875 L 3.15625 -5.90625 C 3.257812 -5.925781 3.359375 -5.941406 3.453125 -5.953125 C 3.546875 -5.972656 3.644531 -6 3.75 -6.03125 C 3.957031 -6.0625 4.160156 -6.09375 4.359375 -6.125 C 4.566406 -6.164062 4.769531 -6.195312 4.96875 -6.21875 C 5.476562 -6.257812 5.953125 -6.234375 6.390625 -6.140625 C 6.773438 -6.054688 6.984375 -5.816406 7.015625 -5.421875 C 7.023438 -5.191406 6.972656 -5.007812 6.859375 -4.875 C 6.742188 -4.75 6.617188 -4.65625 6.484375 -4.59375 C 6.171875 -4.425781 5.863281 -4.328125 5.5625 -4.296875 C 5.269531 -4.273438 4.972656 -4.253906 4.671875 -4.234375 C 4.367188 -4.222656 4.0625 -4.207031 3.75 -4.1875 C 3.625 -4.1875 3.492188 -4.179688 3.359375 -4.171875 C 3.234375 -4.171875 3.101562 -4.171875 2.96875 -4.171875 L 2.828125 -4.15625 L 2.828125 -4.015625 C 2.828125 -3.953125 2.828125 -3.882812 2.828125 -3.8125 C 2.828125 -3.75 2.828125 -3.6875 2.828125 -3.625 C 2.828125 -3.425781 2.828125 -3.226562 2.828125 -3.03125 C 2.828125 -2.84375 2.832031 -2.65625 2.84375 -2.46875 C 2.84375 -2.40625 2.863281 -2.347656 2.90625 -2.296875 C 2.945312 -2.242188 2.976562 -2.203125 3 -2.171875 C 3.039062 -2.148438 3.085938 -2.125 3.140625 -2.09375 C 3.191406 -2.0625 3.253906 -2.046875 3.328125 -2.046875 C 3.828125 -2.078125 4.390625 -2.144531 5.015625 -2.25 C 5.085938 -2.257812 5.160156 -2.273438 5.234375 -2.296875 C 5.316406 -2.316406 5.394531 -2.335938 5.46875 -2.359375 C 5.570312 -2.378906 5.671875 -2.398438 5.765625 -2.421875 C 5.859375 -2.453125 5.953125 -2.472656 6.046875 -2.484375 Z M 6.046875 -2.484375 "/></g></g></g><g fill="#3c6ca8" fill-opacity="1"><g transform="translate(81.119853, 16.643125)"><g><path d="M 7.296875 -3.28125 C 7.460938 -2.632812 7.410156 -2.054688 7.140625 -1.546875 C 6.878906 -1.046875 6.453125 -0.691406 5.859375 -0.484375 C 5.179688 -0.253906 4.367188 -0.117188 3.421875 -0.078125 C 3.003906 -0.0546875 2.628906 -0.148438 2.296875 -0.359375 C 1.960938 -0.578125 1.695312 -0.796875 1.5 -1.015625 C 1.28125 -1.265625 1.144531 -1.53125 1.09375 -1.8125 C 1.039062 -2.09375 1.082031 -2.347656 1.21875 -2.578125 C 1.4375 -2.953125 1.796875 -3.140625 2.296875 -3.140625 C 2.429688 -3.140625 2.566406 -3.128906 2.703125 -3.109375 C 2.765625 -3.085938 2.828125 -3.066406 2.890625 -3.046875 C 2.953125 -3.035156 3.007812 -3.019531 3.0625 -3 C 3.300781 -2.9375 3.546875 -2.878906 3.796875 -2.828125 C 4.054688 -2.785156 4.328125 -2.804688 4.609375 -2.890625 L 5.0625 -3.015625 L 5 -3.171875 C 4.875 -3.453125 4.703125 -3.65625 4.484375 -3.78125 C 4.273438 -3.914062 4.050781 -4.019531 3.8125 -4.09375 C 2.875 -4.375 2.03125 -4.894531 1.28125 -5.65625 C 0.726562 -6.21875 0.46875 -6.847656 0.5 -7.546875 C 0.539062 -8.242188 0.851562 -8.832031 1.4375 -9.3125 C 2.5625 -10.238281 3.835938 -10.53125 5.265625 -10.1875 C 5.898438 -10.039062 6.375 -9.722656 6.6875 -9.234375 C 6.800781 -9.023438 6.867188 -8.796875 6.890625 -8.546875 C 6.890625 -8.472656 6.878906 -8.390625 6.859375 -8.296875 C 6.835938 -8.210938 6.796875 -8.144531 6.734375 -8.09375 C 6.628906 -8.007812 6.460938 -8.015625 6.234375 -8.109375 C 5.960938 -8.222656 5.628906 -8.328125 5.234375 -8.421875 C 4.847656 -8.515625 4.4375 -8.507812 4 -8.40625 C 3.789062 -8.363281 3.585938 -8.296875 3.390625 -8.203125 C 3.203125 -8.117188 3.023438 -8.023438 2.859375 -7.921875 C 2.671875 -7.804688 2.578125 -7.664062 2.578125 -7.5 C 2.578125 -7.320312 2.664062 -7.175781 2.84375 -7.0625 L 3.140625 -6.890625 C 3.390625 -6.742188 3.640625 -6.597656 3.890625 -6.453125 C 4.140625 -6.316406 4.394531 -6.191406 4.65625 -6.078125 C 6.101562 -5.503906 6.984375 -4.570312 7.296875 -3.28125 Z M 7.296875 -3.28125 "/></g></g></g><g fill="#3c6ca8" fill-opacity="1"><g transform="translate(52.604594, 30.357635)"><g><path d="M 8.359375 -10.203125 C 8.523438 -10.078125 8.644531 -9.890625 8.71875 -9.640625 C 8.789062 -9.398438 8.738281 -9.140625 8.5625 -8.859375 C 8.132812 -8.210938 7.695312 -7.59375 7.25 -7 C 6.8125 -6.40625 6.40625 -5.851562 6.03125 -5.34375 C 5.789062 -5.039062 5.695312 -4.703125 5.75 -4.328125 C 5.863281 -3.253906 5.929688 -2.265625 5.953125 -1.359375 C 5.953125 -0.929688 5.851562 -0.585938 5.65625 -0.328125 C 5.457031 -0.0664062 5.195312 0.0664062 4.875 0.078125 C 4.59375 0.0859375 4.34375 -0.0078125 4.125 -0.21875 C 3.851562 -0.488281 3.71875 -0.863281 3.71875 -1.34375 C 3.71875 -1.601562 3.722656 -1.867188 3.734375 -2.140625 C 3.753906 -2.421875 3.78125 -2.691406 3.8125 -2.953125 C 3.820312 -3.128906 3.832031 -3.300781 3.84375 -3.46875 C 3.863281 -3.644531 3.878906 -3.816406 3.890625 -3.984375 C 3.890625 -4.085938 3.867188 -4.195312 3.828125 -4.3125 C 3.785156 -4.425781 3.722656 -4.507812 3.640625 -4.5625 C 2.816406 -5.101562 2.164062 -5.867188 1.6875 -6.859375 C 1.539062 -7.160156 1.40625 -7.46875 1.28125 -7.78125 C 1.164062 -8.09375 1.046875 -8.398438 0.921875 -8.703125 C 0.867188 -8.835938 0.816406 -8.96875 0.765625 -9.09375 C 0.710938 -9.226562 0.664062 -9.359375 0.625 -9.484375 C 0.601562 -9.523438 0.585938 -9.570312 0.578125 -9.625 C 0.566406 -9.675781 0.554688 -9.726562 0.546875 -9.78125 C 0.429688 -10.289062 0.546875 -10.648438 0.890625 -10.859375 C 1.023438 -10.941406 1.171875 -10.984375 1.328125 -10.984375 C 1.453125 -10.984375 1.570312 -10.957031 1.6875 -10.90625 C 1.800781 -10.851562 1.910156 -10.769531 2.015625 -10.65625 C 2.222656 -10.425781 2.414062 -10.179688 2.59375 -9.921875 C 2.769531 -9.660156 2.941406 -9.398438 3.109375 -9.140625 L 3.140625 -9.09375 C 3.285156 -8.863281 3.425781 -8.632812 3.5625 -8.40625 C 3.707031 -8.175781 3.851562 -7.9375 4 -7.6875 C 4.070312 -7.582031 4.140625 -7.472656 4.203125 -7.359375 C 4.273438 -7.242188 4.347656 -7.128906 4.421875 -7.015625 L 4.53125 -6.8125 L 5.1875 -7.65625 C 5.382812 -7.914062 5.578125 -8.164062 5.765625 -8.40625 C 5.960938 -8.65625 6.15625 -8.898438 6.34375 -9.140625 C 6.375 -9.203125 6.40625 -9.253906 6.4375 -9.296875 C 6.476562 -9.347656 6.519531 -9.398438 6.5625 -9.453125 C 6.625 -9.546875 6.6875 -9.632812 6.75 -9.71875 C 6.8125 -9.800781 6.878906 -9.878906 6.953125 -9.953125 C 7.160156 -10.171875 7.394531 -10.300781 7.65625 -10.34375 C 7.914062 -10.394531 8.148438 -10.347656 8.359375 -10.203125 Z M 8.359375 -10.203125 "/></g></g></g><g fill="#3c6ca8" fill-opacity="1"><g transform="translate(61.855727, 30.357635)"><g><path d="M 5.796875 -10.140625 C 6.398438 -9.992188 6.957031 -9.8125 7.46875 -9.59375 C 7.976562 -9.375 8.414062 -9.085938 8.78125 -8.734375 C 9.15625 -8.390625 9.453125 -7.953125 9.671875 -7.421875 C 9.898438 -6.890625 10.035156 -6.242188 10.078125 -5.484375 C 9.972656 -4.265625 9.625 -3.296875 9.03125 -2.578125 C 8.914062 -2.453125 8.800781 -2.320312 8.6875 -2.1875 C 8.582031 -2.0625 8.472656 -1.9375 8.359375 -1.8125 L 8.09375 -1.5 C 7.226562 -0.476562 6.09375 -0.0546875 4.6875 -0.234375 C 4.582031 -0.242188 4.476562 -0.253906 4.375 -0.265625 C 4.28125 -0.285156 4.179688 -0.304688 4.078125 -0.328125 L 4.03125 -0.34375 C 2.71875 -0.613281 1.753906 -1.289062 1.140625 -2.375 C 0.796875 -2.976562 0.585938 -3.648438 0.515625 -4.390625 C 0.453125 -5.140625 0.535156 -5.835938 0.765625 -6.484375 C 1.503906 -8.617188 2.914062 -9.820312 5 -10.09375 L 5.140625 -10.125 C 5.210938 -10.132812 5.285156 -10.144531 5.359375 -10.15625 C 5.429688 -10.164062 5.503906 -10.171875 5.578125 -10.171875 C 5.660156 -10.171875 5.734375 -10.160156 5.796875 -10.140625 Z M 7.625 -5.265625 L 7.640625 -5.3125 L 7.640625 -5.34375 C 7.578125 -5.832031 7.445312 -6.210938 7.25 -6.484375 C 7.050781 -6.753906 6.738281 -6.972656 6.3125 -7.140625 C 5.925781 -7.304688 5.585938 -7.460938 5.296875 -7.609375 C 4.898438 -7.804688 4.5625 -7.867188 4.28125 -7.796875 C 4 -7.734375 3.738281 -7.523438 3.5 -7.171875 C 2.769531 -6.078125 2.59375 -5.007812 2.96875 -3.96875 C 3.09375 -3.625 3.289062 -3.332031 3.5625 -3.09375 C 3.84375 -2.863281 4.164062 -2.710938 4.53125 -2.640625 C 4.65625 -2.609375 4.785156 -2.59375 4.921875 -2.59375 C 5.503906 -2.59375 5.988281 -2.8125 6.375 -3.25 C 6.40625 -3.289062 6.4375 -3.328125 6.46875 -3.359375 C 6.5 -3.390625 6.53125 -3.414062 6.5625 -3.4375 C 6.644531 -3.53125 6.722656 -3.617188 6.796875 -3.703125 C 6.867188 -3.796875 6.941406 -3.890625 7.015625 -3.984375 C 7.085938 -4.128906 7.160156 -4.273438 7.234375 -4.421875 C 7.304688 -4.578125 7.375 -4.734375 7.4375 -4.890625 C 7.46875 -4.953125 7.492188 -5.015625 7.515625 -5.078125 C 7.546875 -5.140625 7.582031 -5.203125 7.625 -5.265625 Z M 7.625 -5.265625 "/></g></g></g><g fill="#3c6ca8" fill-opacity="1"><g transform="translate(72.453718, 30.357635)"><g><path d="M 9.34375 -3.265625 C 9.363281 -3.171875 9.378906 -3.078125 9.390625 -2.984375 C 9.410156 -2.890625 9.425781 -2.796875 9.4375 -2.703125 C 9.425781 -2.609375 9.410156 -2.507812 9.390625 -2.40625 C 9.378906 -2.3125 9.367188 -2.21875 9.359375 -2.125 C 9.335938 -1.925781 9.3125 -1.726562 9.28125 -1.53125 C 9.25 -1.332031 9.207031 -1.140625 9.15625 -0.953125 C 9.039062 -0.503906 8.84375 -0.226562 8.5625 -0.125 C 8.28125 0 7.925781 -0.0546875 7.5 -0.296875 C 7.4375 -0.335938 7.347656 -0.359375 7.234375 -0.359375 C 7.140625 -0.359375 7.035156 -0.335938 6.921875 -0.296875 C 6.171875 -0.046875 5.265625 -0.00390625 4.203125 -0.171875 C 3.753906 -0.253906 3.359375 -0.394531 3.015625 -0.59375 C 2.671875 -0.789062 2.375 -1.007812 2.125 -1.25 C 1.875 -1.5 1.671875 -1.738281 1.515625 -1.96875 C 1.117188 -2.519531 0.832031 -3.125 0.65625 -3.78125 C 0.488281 -4.445312 0.457031 -5.054688 0.5625 -5.609375 C 0.707031 -6.398438 1.007812 -7.125 1.46875 -7.78125 C 1.925781 -8.445312 2.507812 -9.003906 3.21875 -9.453125 C 3.882812 -9.878906 4.582031 -10.164062 5.3125 -10.3125 C 6.039062 -10.46875 6.707031 -10.460938 7.3125 -10.296875 C 7.550781 -10.222656 7.800781 -10.125 8.0625 -10 C 8.320312 -9.875 8.535156 -9.679688 8.703125 -9.421875 C 8.816406 -9.222656 8.859375 -9 8.828125 -8.75 C 8.816406 -8.632812 8.773438 -8.550781 8.703125 -8.5 C 8.597656 -8.425781 8.476562 -8.421875 8.34375 -8.484375 C 6.863281 -9.023438 5.4375 -8.753906 4.0625 -7.671875 C 3.289062 -7.054688 2.847656 -6.242188 2.734375 -5.234375 C 2.609375 -4.179688 3.015625 -3.328125 3.953125 -2.671875 C 4.890625 -2.023438 5.925781 -1.898438 7.0625 -2.296875 C 7.175781 -2.335938 7.285156 -2.398438 7.390625 -2.484375 C 7.492188 -2.578125 7.535156 -2.726562 7.515625 -2.9375 L 7.515625 -2.984375 C 7.515625 -3.015625 7.515625 -3.054688 7.515625 -3.109375 C 7.523438 -3.160156 7.53125 -3.207031 7.53125 -3.25 C 7.539062 -3.382812 7.546875 -3.515625 7.546875 -3.640625 C 7.546875 -3.773438 7.507812 -3.882812 7.4375 -3.96875 C 7.363281 -4.0625 7.269531 -4.117188 7.15625 -4.140625 C 7.039062 -4.160156 6.921875 -4.175781 6.796875 -4.1875 C 6.734375 -4.1875 6.675781 -4.1875 6.625 -4.1875 C 6.582031 -4.195312 6.535156 -4.207031 6.484375 -4.21875 L 6.390625 -4.234375 C 6.316406 -4.253906 6.25 -4.269531 6.1875 -4.28125 C 6.125 -4.289062 6.0625 -4.304688 6 -4.328125 C 5.757812 -4.429688 5.632812 -4.609375 5.625 -4.859375 C 5.613281 -5.046875 5.691406 -5.191406 5.859375 -5.296875 C 6.679688 -5.785156 7.535156 -5.894531 8.421875 -5.625 C 8.660156 -5.5625 8.828125 -5.425781 8.921875 -5.21875 C 9.023438 -5.019531 9.09375 -4.847656 9.125 -4.703125 C 9.164062 -4.472656 9.207031 -4.234375 9.25 -3.984375 C 9.289062 -3.742188 9.320312 -3.503906 9.34375 -3.265625 Z M 9.34375 -3.265625 "/></g></g></g><g fill="#3c6ca8" fill-opacity="1"><g transform="translate(82.398683, 30.357635)"><g><path d="M 8.859375 -9.546875 C 9.003906 -9.191406 9.0625 -8.898438 9.03125 -8.671875 C 8.800781 -6.828125 8.566406 -5.1875 8.328125 -3.75 C 8.285156 -3.507812 8.210938 -3.269531 8.109375 -3.03125 C 8.015625 -2.800781 7.914062 -2.578125 7.8125 -2.359375 C 7.34375 -1.378906 6.625 -0.75 5.65625 -0.46875 C 4.6875 -0.1875 3.734375 -0.335938 2.796875 -0.921875 C 1.390625 -1.804688 0.644531 -3.128906 0.5625 -4.890625 C 0.550781 -5.015625 0.546875 -5.140625 0.546875 -5.265625 C 0.554688 -5.390625 0.5625 -5.515625 0.5625 -5.640625 C 0.5625 -5.710938 0.5625 -5.773438 0.5625 -5.828125 C 0.5625 -5.890625 0.5625 -5.945312 0.5625 -6 L 0.5625 -6.15625 L 0.5 -6.15625 L 0.546875 -6.625 C 0.566406 -6.957031 0.59375 -7.289062 0.625 -7.625 C 0.65625 -7.96875 0.6875 -8.304688 0.71875 -8.640625 C 0.726562 -8.765625 0.757812 -8.914062 0.8125 -9.09375 C 0.945312 -9.5 1.207031 -9.71875 1.59375 -9.75 C 1.769531 -9.757812 1.929688 -9.707031 2.078125 -9.59375 C 2.234375 -9.476562 2.335938 -9.320312 2.390625 -9.125 C 2.492188 -8.800781 2.566406 -8.410156 2.609375 -7.953125 C 2.640625 -7.640625 2.664062 -7.328125 2.6875 -7.015625 C 2.71875 -6.710938 2.75 -6.40625 2.78125 -6.09375 C 2.789062 -5.90625 2.804688 -5.710938 2.828125 -5.515625 C 2.847656 -5.316406 2.867188 -5.113281 2.890625 -4.90625 C 2.960938 -4.019531 3.351562 -3.347656 4.0625 -2.890625 C 4.507812 -2.585938 4.921875 -2.503906 5.296875 -2.640625 C 5.628906 -2.765625 5.859375 -3.050781 5.984375 -3.5 C 6.109375 -3.945312 6.210938 -4.398438 6.296875 -4.859375 C 6.378906 -5.328125 6.453125 -5.789062 6.515625 -6.25 L 6.5625 -6.46875 C 6.582031 -6.664062 6.601562 -6.863281 6.625 -7.0625 C 6.644531 -7.269531 6.664062 -7.472656 6.6875 -7.671875 C 6.695312 -7.835938 6.707031 -8.007812 6.71875 -8.1875 C 6.738281 -8.363281 6.757812 -8.535156 6.78125 -8.703125 C 6.820312 -9.046875 6.914062 -9.359375 7.0625 -9.640625 C 7.25 -10.003906 7.5625 -10.171875 8 -10.140625 C 8.414062 -10.117188 8.703125 -9.921875 8.859375 -9.546875 Z M 8.859375 -9.546875 "/></g></g></g><g fill="#3c6ca8" fill-opacity="1"><g transform="translate(91.949116, 30.357635)"><g><path d="M 7.921875 -2.8125 C 8.078125 -2.726562 8.222656 -2.625 8.359375 -2.5 C 8.492188 -2.375 8.59375 -2.21875 8.65625 -2.03125 C 8.71875 -1.851562 8.707031 -1.648438 8.625 -1.421875 C 8.539062 -1.128906 8.359375 -0.910156 8.078125 -0.765625 C 7.796875 -0.617188 7.5 -0.585938 7.1875 -0.671875 C 6.957031 -0.734375 6.734375 -0.820312 6.515625 -0.9375 C 6.304688 -1.050781 6.097656 -1.164062 5.890625 -1.28125 C 5.609375 -1.445312 5.328125 -1.613281 5.046875 -1.78125 C 4.765625 -1.957031 4.488281 -2.125 4.21875 -2.28125 C 4.070312 -2.375 3.925781 -2.460938 3.78125 -2.546875 C 3.644531 -2.640625 3.503906 -2.726562 3.359375 -2.8125 C 3.316406 -2.84375 3.269531 -2.867188 3.21875 -2.890625 C 3.175781 -2.910156 3.128906 -2.9375 3.078125 -2.96875 C 3.003906 -2.988281 2.941406 -3.019531 2.890625 -3.0625 L 2.6875 -3.15625 L 2.609375 -2.375 C 2.585938 -2.164062 2.566406 -1.96875 2.546875 -1.78125 C 2.523438 -1.59375 2.503906 -1.40625 2.484375 -1.21875 C 2.441406 -0.882812 2.332031 -0.625 2.15625 -0.4375 C 1.988281 -0.257812 1.773438 -0.175781 1.515625 -0.1875 C 1.242188 -0.195312 1.023438 -0.296875 0.859375 -0.484375 C 0.691406 -0.679688 0.597656 -0.941406 0.578125 -1.265625 C 0.390625 -3.691406 0.566406 -6.332031 1.109375 -9.1875 C 1.179688 -9.570312 1.320312 -9.828125 1.53125 -9.953125 C 1.625 -10.003906 1.738281 -10.03125 1.875 -10.03125 C 2.039062 -10.03125 2.234375 -9.992188 2.453125 -9.921875 C 2.535156 -9.878906 2.628906 -9.867188 2.734375 -9.890625 C 2.847656 -9.921875 2.925781 -9.945312 2.96875 -9.96875 C 3.945312 -10.34375 5.007812 -10.394531 6.15625 -10.125 C 7.363281 -9.832031 8.101562 -9.066406 8.375 -7.828125 C 8.613281 -6.691406 8.238281 -5.738281 7.25 -4.96875 C 7.132812 -4.882812 7.015625 -4.800781 6.890625 -4.71875 C 6.765625 -4.632812 6.628906 -4.550781 6.484375 -4.46875 C 6.421875 -4.425781 6.351562 -4.378906 6.28125 -4.328125 C 6.207031 -4.285156 6.132812 -4.242188 6.0625 -4.203125 L 5.859375 -4.078125 L 6.0625 -3.953125 C 6.15625 -3.890625 6.25 -3.828125 6.34375 -3.765625 C 6.445312 -3.703125 6.546875 -3.644531 6.640625 -3.59375 C 6.859375 -3.445312 7.070312 -3.3125 7.28125 -3.1875 C 7.488281 -3.0625 7.703125 -2.9375 7.921875 -2.8125 Z M 2.96875 -5.953125 C 4.09375 -6.097656 5.066406 -6.457031 5.890625 -7.03125 C 6.171875 -7.226562 6.296875 -7.46875 6.265625 -7.75 C 6.222656 -8 6.054688 -8.175781 5.765625 -8.28125 C 4.859375 -8.570312 4.054688 -8.484375 3.359375 -8.015625 C 3.078125 -7.835938 2.910156 -7.625 2.859375 -7.375 C 2.816406 -7.125 2.800781 -6.875 2.8125 -6.625 C 2.8125 -6.53125 2.8125 -6.441406 2.8125 -6.359375 C 2.8125 -6.273438 2.804688 -6.191406 2.796875 -6.109375 L 2.78125 -5.921875 Z M 2.96875 -5.953125 "/></g></g></g><g fill="#3c6ca8" fill-opacity="1"><g transform="translate(101.145829, 30.357635)"><g><path d="M 7.71875 -10.015625 C 8.007812 -9.929688 8.234375 -9.78125 8.390625 -9.5625 C 8.554688 -9.351562 8.625 -9.117188 8.59375 -8.859375 C 8.570312 -8.585938 8.460938 -8.359375 8.265625 -8.171875 C 8.066406 -7.984375 7.820312 -7.878906 7.53125 -7.859375 C 7.382812 -7.859375 7.238281 -7.859375 7.09375 -7.859375 C 6.945312 -7.859375 6.800781 -7.859375 6.65625 -7.859375 C 6.582031 -7.859375 6.507812 -7.859375 6.4375 -7.859375 C 6.375 -7.859375 6.304688 -7.859375 6.234375 -7.859375 L 4.984375 -7.859375 L 5.015625 -7.6875 C 5.023438 -7.519531 5.039062 -7.351562 5.0625 -7.1875 C 5.09375 -7.019531 5.117188 -6.859375 5.140625 -6.703125 C 5.191406 -6.335938 5.238281 -5.976562 5.28125 -5.625 C 5.332031 -5.28125 5.378906 -4.9375 5.421875 -4.59375 C 5.460938 -4.207031 5.503906 -3.796875 5.546875 -3.359375 C 5.585938 -2.929688 5.617188 -2.492188 5.640625 -2.046875 C 5.640625 -1.710938 5.570312 -1.363281 5.4375 -1 C 5.257812 -0.550781 4.921875 -0.320312 4.421875 -0.3125 C 3.910156 -0.320312 3.570312 -0.550781 3.40625 -1 C 3.238281 -1.425781 3.15625 -1.851562 3.15625 -2.28125 C 3.15625 -2.882812 3.160156 -3.484375 3.171875 -4.078125 C 3.179688 -4.671875 3.195312 -5.265625 3.21875 -5.859375 C 3.21875 -6.085938 3.21875 -6.316406 3.21875 -6.546875 C 3.21875 -6.785156 3.222656 -7.03125 3.234375 -7.28125 C 3.234375 -7.3125 3.226562 -7.375 3.21875 -7.46875 L 3.21875 -7.703125 L 2.765625 -7.75 C 2.609375 -7.757812 2.453125 -7.769531 2.296875 -7.78125 C 2.140625 -7.800781 1.988281 -7.820312 1.84375 -7.84375 C 1.757812 -7.851562 1.679688 -7.859375 1.609375 -7.859375 C 1.546875 -7.867188 1.476562 -7.882812 1.40625 -7.90625 C 0.820312 -8.039062 0.519531 -8.34375 0.5 -8.8125 C 0.476562 -9.289062 0.769531 -9.613281 1.375 -9.78125 L 1.421875 -9.78125 C 1.441406 -9.800781 1.457031 -9.8125 1.46875 -9.8125 C 1.757812 -9.832031 2.050781 -9.851562 2.34375 -9.875 C 2.632812 -9.90625 2.921875 -9.9375 3.203125 -9.96875 C 3.660156 -10.019531 4.125 -10.066406 4.59375 -10.109375 C 5.0625 -10.160156 5.523438 -10.1875 5.984375 -10.1875 C 6.222656 -10.1875 6.457031 -10.175781 6.6875 -10.15625 C 6.914062 -10.144531 7.148438 -10.117188 7.390625 -10.078125 C 7.503906 -10.066406 7.613281 -10.046875 7.71875 -10.015625 Z M 7.71875 -10.015625 "/></g></g></g></svg>